<svg viewBox="0 0 672.93 402.63" xmlns="http://www.w3.org/2000/svg"><path d="m.72-.78h672.21v403.41h-672.21z" fill="#fff"/><rect fill="#ebf6fc" height="209.71" rx="13.29" width="298.75" x="214.11" y="9.97"/><rect fill="#ffcbca" height="19.54" rx="6.36" width="70.25" x="263.12" y="47.58"/><rect fill="#ffe4c0" height="24.4" rx="4.84" width="60.5" x="372.06" y="47.11"/><g fill="#fff"><rect height="16.52" rx="4.84" width="31.54" x="372.06" y="82.63"/><rect height="4.29" rx="2.15" width="42.18" x="263.12" y="76.76"/><rect height="4.29" rx="2.15" width="14.1" x="372.06" y="107.79"/><rect height="4.29" rx="2.15" width="14.1" x="263.12" y="105.06"/><rect height="4.29" rx="2.15" width="42.18" x="263.12" y="86.61"/><rect height="4.29" rx="2.15" width="42.18" x="263.12" y="96.47"/><rect height="9.68" rx="2.6" width="22.62" x="372.06" y="120.73"/></g><path d="m610.71 383.22h-2.71c-12.47 0-19-16.17-20.23-31.22-.47-5.68-1.77-16-2.21-21.05a1.42 1.42 0 0 1 1.2-1.68h45.24a1.43 1.43 0 0 1 1.2 1.69c-.48 5.33-2 17.12-2.79 23.27-2.12 15.4-7.22 28.99-19.7 28.99z" fill="#bd6b4e"/><ellipse cx="609.34" cy="330.19" fill="#76503d" rx="23.95" ry="4.42"/><path d="m570.34 268.27c.9-1.57 29.4 1.94 35.67 45.7h-.15c-.35-.26-.7-.5-1.06-.72h-.06c-14.66-10.29-26.67-27.54-34.21-44.91z" fill="#7ca147"/><path d="m604.37 278.81c.32 2.38.58 4.64.81 7a4.83 4.83 0 0 0 -.14-.68c-5.21-19-33.88-99.09-33.88-99.09.62-.68 1.31.23 1.74.79a103.73 103.73 0 0 1 7.1 11.35 173.41 173.41 0 0 1 11.64 24.63 179.76 179.76 0 0 1 7.81 26.44c2.12 9.75 3.62 19.65 4.92 29.56z" fill="#7ca147"/><path d="m620.25 283.73c24.18-45.16 27.81-49.88 44.41-72l.45-.14c.65 1.93-.14 5.68-.27 7a87.11 87.11 0 0 1 -6.13 23.86 83.55 83.55 0 0 1 -15.05 24.09c-6.68 7.44-14.83 12.31-22.91 17.6a.88.88 0 0 1 -.53.17.28.28 0 0 1 -.25-.17.65.65 0 0 1 0-.47z" fill="#7ca147"/><path d="m613.74 263.17a2.19 2.19 0 0 1 -1.9.68c13.73-64.91 19.81-68.3 30.07-101.53a1.45 1.45 0 0 1 .26.07c3.4 1.42-.18 34.24-2.54 45.07q-1.51 6.91-3.65 13.63t-4.88 13.15a151 151 0 0 1 -7.77 15.76c-2.68 4.65-5.49 9.86-9.59 13.17z" fill="#7ca147"/><path d="m664.66 211.77c-16.6 22.08-20.23 26.8-44.41 72l-.22-.09c.42-1.2.88-2.39 1.32-3.6q1.71-4.94 3.55-9.82 3.65-9.66 7.8-19.08a133.06 133.06 0 0 1 12.66-22.88 99.64 99.64 0 0 1 8.13-10.18c2.73-3 5.86-6.69 9.74-7.55a1.46 1.46 0 0 1 1.88 1.1z" fill="#89b155"/><path d="m570.53 268.32c7.54 17.37 19.55 34.62 34.21 44.91-5.64-3.56-12.06-3.56-17.54-7.27-6.06-4.1-10.33-10.63-13-17.85a57.22 57.22 0 0 1 -3.92-19.76.24.24 0 0 1 0-.08z" fill="#89b155"/><path d="m605.16 285.78c.29 2.44-5.78-8.34-8.17-11.94-3-4.45-6-8.88-8.91-13.39-5.56-8.6-10.79-17.56-14.47-27.37a85.75 85.75 0 0 1 -5.2-36.23c.25-3.54.27-8.17 2.73-10.84 0 0 28.67 80.08 33.88 99.09a4.83 4.83 0 0 1 .14.68z" fill="#89b155"/><path d="m641.91 162.32c-10.26 33.23-16.34 36.62-30.07 101.53-.77-.23-1.12-1.18-1.34-2-2.1-7.77-1.33-15.89-.9-23.85.6-11.35 1.83-22.72 4.7-33.65a87.78 87.78 0 0 1 10.42-24.56 62.91 62.91 0 0 1 8-10.3 45.72 45.72 0 0 1 6.55-6.14 4.19 4.19 0 0 1 2.64-1.03z" fill="#89b155"/><path d="m610.14 334.52a.68.68 0 0 1 -.69-.68c0-4.43 0-22.87 0-27v-.3c.07-13.9.13-28.27 1.81-42.24.05-.34.08-.59.1-.85a.69.69 0 1 1 1.38.14c0 .27-.06.53-.1.8-1.67 14-1.74 28.3-1.81 42.16v.3 26.94a.68.68 0 0 1 -.68.69z" fill="#89b155"/><path d="m613.65 334.52a.68.68 0 0 1 -.69-.68c-.19-10.65 1.61-40.39 7.16-50.73a.69.69 0 0 1 .93-.29.69.69 0 0 1 .29.94c-5.43 10.12-7.19 39.51-7 50.06a.69.69 0 0 1 -.68.7z" fill="#89b155"/><path d="m611.84 264.2h-.08a.35.35 0 0 1 -.26-.41c9.44-44.63 15.21-60 21.33-76.36 2.72-7.28 5.54-14.81 8.75-25.2l.06-.2.06-.2a.34.34 0 0 1 .42-.24.33.33 0 0 1 .24.42l-.06.23-.06.18c-3.21 10.42-6 18-8.77 25.25-6.1 16.29-11.86 31.68-21.3 76.27a.33.33 0 0 1 -.33.26z" fill="#a7ba57"/><path d="m620.25 284.07a.32.32 0 0 1 -.16 0 .35.35 0 0 1 -.14-.47c24-44.85 27.87-50 44.08-71.52l.35-.48a.35.35 0 0 1 .56.42l-.36.47c-16.18 21.52-20 26.63-44 71.44a.33.33 0 0 1 -.33.14z" fill="#a7ba57"/><path d="m607.21 334.52a.7.7 0 0 1 -.69-.66c-.28-6.16-.53-11.52-.74-16.23-.76-16.47-1.21-25.1-2-33a.69.69 0 0 1 .62-.76.68.68 0 0 1 .75.62c.82 7.94 1.26 16.59 2 33.09.21 4.71.46 10.07.74 16.23a.69.69 0 0 1 -.66.72z" fill="#89b155"/><path d="m604.72 284.39a.35.35 0 0 1 -.33-.25c-5.84-20.5-33.3-97.24-33.58-98a.35.35 0 0 1 .21-.44.34.34 0 0 1 .44.21c.28.77 27.75 77.53 33.6 98a.36.36 0 0 1 -.24.43z" fill="#a7ba57"/><path d="m605.6 314.16a.28.28 0 0 1 -.15 0l-.44-.29-.45-.3c-13.52-9.49-26-25.91-34.34-45.07a.33.33 0 0 1 .18-.45.34.34 0 0 1 .45.17c8.27 19.05 20.69 35.37 34.09 44.77l.46.31.39.27a.33.33 0 0 1 .11.46.34.34 0 0 1 -.3.13z" fill="#a7ba57"/><path d="m434.63 362.07c.28 2.56.55 5 .68 6.77a6 6 0 0 1 -.82.18 9.81 9.81 0 0 1 -3.7-.2c-.66-.15-1.84-.52-2.85-.86.7-5.07 1.44-10.13 2.19-15.19l3.75.69-.08.43c.13 2 .46 4.91.79 7.8.01.13.02.31.04.38z" fill="#487150"/><path d="m372.75 358.47 7.18 1.8c-.29 1.88-.58 4.41-.86 6.93v.4c-.27 2.36-.53 4.69-.78 6.45a14.89 14.89 0 0 1 -8.29-1.55c.21-2 .5-4.63.82-7.14s.62-5.15.83-7.17z" fill="#487150"/><path d="m530.62 233.53.06.42c-.6.55-1.22 1.09-1.84 1.63l-.09.08c-.63.54-1.28 1.08-1.94 1.57z" fill="#fff"/><path d="m498.39 220.13a6 6 0 0 1 -1.95-1 4.65 4.65 0 0 1 -1.63-4.51 3.91 3.91 0 0 1 .49-1.22 5 5 0 0 1 2.92-2.17c1.54-.48 3.18-.67 4.77-1l.85-.2a53.61 53.61 0 0 0 5.43-1.74c.59.85 1.12 1.74 1.64 2.62 1.63 2.79 3 5.71 4.47 8.59 2.25 4.45 3.92 9.18 3.82 14.23v.88c-1.12.39-2.25.76-3.38 1.09a37.19 37.19 0 0 1 -4.29 1h-.13a26.12 26.12 0 0 1 -5.72.42c-2.54-.11-6.18-.46-7.67-2.86-1.18-1.9-.23-4.15 1.08-5.7v-.36a8.15 8.15 0 0 1 -1.13-.6 4.54 4.54 0 0 1 -1.65-1.93 4.2 4.2 0 0 1 -.36-1.39 4.4 4.4 0 0 1 2.44-4.15z" fill="#c5a28a"/><path d="m514.34 245.49a3.86 3.86 0 0 1 -2.65 4.9l-25.7 7.1c2.37-10.42 4.13-31.34-6.65-54.4a7.38 7.38 0 0 0 0-2.15c-.32-2.17-1.79-4-2.28-6.16a10.16 10.16 0 0 1 -.22-2.27h1.15l14.2-3.83a3.85 3.85 0 0 1 4.68 2.54l6.11 19c-1.59.34-3.23.53-4.77 1a5 5 0 0 0 -2.92 2.17 3.91 3.91 0 0 0 -.49 1.22 4.65 4.65 0 0 0 1.63 4.51 6 6 0 0 0 1.95 1 4.4 4.4 0 0 0 -2.45 4.18 4.2 4.2 0 0 0 .36 1.39 4.54 4.54 0 0 0 1.65 1.93 8.15 8.15 0 0 0 1.13.6v.36c-1.31 1.55-2.26 3.8-1.08 5.7 1.49 2.4 5.13 2.75 7.67 2.86a26.12 26.12 0 0 0 5.72-.42h.13l1.43 4.42z" fill="#e6e7e8"/><path d="m497.2 349.76-.19-.05a.1.1 0 0 1 .19.05z" fill="#fff"/><path d="m534.88 363.4a71.29 71.29 0 0 0 -1.61-13.67h-.66c-4 1-7.75 1.39-9 1.6-7.29 1.22-18.47.24-25.69-1.39l-.71-.17-.19-.05c-1.56 2-3.13 3.92-4.73 5.86-.74.9-1.54 1.75-2.34 2.6s-1.53 1.63-2.26 2.49c-1.16 1.37-3.61 3.91-2.4 5.85a2.07 2.07 0 0 0 3.14.54c.76-.59 1.52-1.39 2.57-1 1.29.53 1.88 1.73 3.44 1.71 2.63 0 2.61-2.12 5.23-2.16s2.66 2.06 5.29 2 2.6-2.12 5.23-2.15 2.66 2.05 5.29 2l10.52-.14c1.13 0 2.25 0 3.38-.06s2.37 0 3.54 0a1.45 1.45 0 0 0 .75-.24 2.48 2.48 0 0 0 1-1.24 6.07 6.07 0 0 0 .21-2.38z" fill="#58595b"/><path d="m494.79 349a13.19 13.19 0 0 1 -4.07-1.87 7.59 7.59 0 0 1 -3.05-6c-3.45.47-7.3.15-10.64.18a74.09 74.09 0 0 1 -10.22-.77l.75 3.45c.93 4.3 1.82 8.61 2.71 12.91a3.42 3.42 0 0 1 1.85-.51c2.63 0 2.66 2 5.28 2l12.54-.19c.8-.85 1.6-1.7 2.34-2.6 1.6-1.94 3.17-3.89 4.73-5.86-.75-.23-1.48-.48-2.22-.74z" fill="#58595b"/><path d="m459.76 339.46-.49.68q-2.49 3.17-5 6.27c-1.46 1.76-3.13 3.34-4.6 5.09-1.17 1.37-3.62 3.91-2.4 5.85a2.08 2.08 0 0 0 3.14.54c.76-.59 1.52-1.4 2.57-1 1.29.53 1.88 1.73 3.44 1.7 2.63 0 2.6-2.11 5.23-2.15 1.92 0 2.45 1.08 3.63 1.66-1.69-6.4-3.4-13-4.85-18.56a4.25 4.25 0 0 1 -.67-.08z" fill="#58595b"/><path d="m531.22 238.06a52.41 52.41 0 0 1 -7.34 2 56.86 56.86 0 0 1 -10.75 1l-.19.06 1.4 4.37a3.86 3.86 0 0 1 -2.65 4.9l-25.7 7.1a44.49 44.49 0 0 1 -1.27 4.57h-.11c.69 7.57-.62 15.2-1.84 22.72q-1 6.48-2.09 12.95c-.44 2.72-.88 5.44-1.53 8.1a40.34 40.34 0 0 1 -1.34 4.47c-1.49 4-3.75 8-7.27 10.45-3.24 2.28-3.55 2.08-7.19 3.47l.07.24c.33 2.11.85 4.21 1.29 6.3l.06.28q1 4.72 2 9.45a74.09 74.09 0 0 0 10.22.77c3.34 0 7.19.29 10.64-.18a7.59 7.59 0 0 0 3.05 6 13.19 13.19 0 0 0 4.07 1.87c.74.27 1.47.52 2.22.72 0 0 .19 0 .19.05l.71.17c7.22 1.63 18.4 2.61 25.69 1.39 1.26-.21 5.06-.64 9-1.6 5.31-1.28 10.89-3.52 10.92-7.43.09-6.48-8.48-75.62-12.26-104.19z" fill="#183061"/><path d="m455.59 326.24a31.25 31.25 0 0 0 -1.54 5.92 7 7 0 0 0 1.11 4.73 7.25 7.25 0 0 0 4.3 2.48c.3.09.61.15.92.21-1.22-4.73-2.77-11.17-3.41-13.78z" fill="#183061"/><path d="m436.31 364.24a3.92 3.92 0 0 1 .29 3 2.59 2.59 0 0 1 -1.51 1.56c-.09-1.62-.27-3.93-.46-6.32a3.43 3.43 0 0 1 1.68 1.76z" fill="#939598"/><path d="m433.4 330c-.43 2.16-.7 4.58-1 6.76q-1 6.9-1.93 13.8l-.33 2.24-4.14-.8-1.21-.23c1-9.69 2-18.76 2.36-21.76z" fill="#f7c45a"/><path d="m426 352 4.17.78c-.75 5.06-1.49 10.12-2.19 15.19-.71-.23-1.33-.44-1.63-.56-.25-2.06-.49-4.53-.73-7a7.58 7.58 0 0 1 -1.73-.17c.3-2.86.6-5.71.88-8.45z" fill="#f7c45a"/><path d="m427.94 368-.45 3.27c-.39 2.9-.74 5.8-1.07 8.71-1.08-.25-2.14-.55-3.19-.85l-1.24-.36c.46-4.62 1-10 1.56-15.4h.09a3.94 3.94 0 0 0 .5 2.4 4.39 4.39 0 0 0 2 1.6l.16.06c.31.09.93.3 1.64.57z" fill="#f7c45a"/><path d="m426.42 379.94c-.11 1-.22 2-.34 2.94-1.47-.34-2.94-.75-4.38-1.21.09-.94.19-1.92.29-2.94l1.24.36c1.05.3 2.11.6 3.19.85z" fill="#f7c45a"/><path d="m426.33 367.36-.16-.06a4.39 4.39 0 0 1 -2-1.6 3.94 3.94 0 0 1 -.5-2.4h-.09c.11-1 .22-2.08.32-3.12a7.58 7.58 0 0 0 1.73.17c.21 2.48.45 4.95.7 7.01z" fill="#f7c45a"/><path d="m425.71 198.57v.16a4.71 4.71 0 0 1 -.8.27z" fill="#fff"/><path d="m479.34 203.09a30.68 30.68 0 0 1 -.75 3.45c-.36 1.51-1 3.85.05 5.22a5.4 5.4 0 0 1 .94 2.77c.35 2.89-1 6.29-3.87 7-3.55.87-7.11-2.82-10.62-1.77-2.14.65-3.38 2.83-4.46 4.8s-2.49 4.09-4.71 4.46-4.39-1.32-6.16-2.86-4-3.15-6.26-2.51-3.5 3.35-5.66 4.35c-4.13 1.84-7-1.66-8.23-5.23-1.73-4.91-.57-9.67-.15-14.7.18-2.2.84-5.07 0-7.19a3.63 3.63 0 0 0 -2.9-2.35 2.4 2.4 0 0 0 -.91.23 4.71 4.71 0 0 1 -.8.27 36.63 36.63 0 0 0 -6.47 4.42c-4.86 4.13-8.65 9.47-12.07 14.81-4.13 6.46-7.39 13-13.17 18.24q-.57.53-1.17 1c-4.07 3.41-9.11 6.06-11.57 10.77a13.8 13.8 0 0 0 -1.31 9.44c.67 2.9 1.55 5.84 2.78 7.54 1.8 2.48 3.81 4.81 6.56 6.09a13.52 13.52 0 0 0 5.76 1.24h.57a10.78 10.78 0 0 0 -.71 3l.54 4.38c1.51 4.77 5.75 9 9.35 12a46.75 46.75 0 0 0 22.5 10.71l.39.2c2.12-4.22 3-9.08 3.71-13.7.34-2.27.59-4.55.82-6.83.37-3.7.68-7.41 1.18-11.1.95-7 2.65-14 6.47-19.87a26.5 26.5 0 0 1 7.61-7.71c5.54-3.61 13.82-5.82 20.39-4.71a19.05 19.05 0 0 1 8.79 3.86c4 3.2 6.41 8 7.69 12.91a40.57 40.57 0 0 1 1.09 6.32h.11a44.49 44.49 0 0 0 1.27-4.57c2.4-10.4 4.16-31.32-6.62-54.38z" fill="#fff"/><path d="m426.08 382.88c-.35 3.07-.7 6.15-1.1 9.21-.08.62 0 1.24-.44 1.64a2.17 2.17 0 0 1 -1.61.48 3.82 3.82 0 0 1 -2.23-1.39c-.06-.1.35-4.6 1-11.15 1.44.46 2.91.87 4.38 1.21z" fill="#f7c45a"/><path d="m442.36 370.89a10.25 10.25 0 0 0 -3.86-6.66 29.39 29.39 0 0 0 -3.91-2.54c0 .13.08.81.1.93 3.65 2.71 1.45 5.9.5 6.17a4.77 4.77 0 0 1 -.7.23 9.81 9.81 0 0 1 -3.7-.2c-.66-.15-1.84-.52-2.85-.86l-.45 3.27c-.39 2.9-.74 5.8-1.07 8.71a16.16 16.16 0 0 0 7.08.39 13.06 13.06 0 0 0 7.87-5.61 5.42 5.42 0 0 0 .99-3.83z" fill="#bcbec0"/><path d="m411.59 355.07a9.63 9.63 0 0 0 -7.46 2.41l-2 7.17a8.7 8.7 0 0 0 2.55 4.41c4.66 4.79 11 7.74 17.35 9.67.46-4.62 1-10 1.56-15.4.11-1 .22-2.08.32-3.12a21.2 21.2 0 0 1 -4.81-2.07c-2.45-1.24-4.82-2.73-7.51-3.07z" fill="#bcbec0"/><path d="m442.93 374.28c-.18-1.18-.34-2.31-.57-3.39a5.42 5.42 0 0 1 -1 3.83 13.06 13.06 0 0 1 -7.87 5.61 16.16 16.16 0 0 1 -7.08-.39c-.11 1-.22 2-.34 2.94 1 .23 2 .43 3 .61a11.58 11.58 0 0 0 7-.57 13.57 13.57 0 0 0 5-4.2l.3-.41c.77-1.08 1.78-2.6 1.56-4.03z" fill="#e6e7e8"/><path d="m402.09 364.65c-.25.87-.49 1.74-.74 2.61a9.35 9.35 0 0 0 .51 1.46c1.4 3.15 4.29 5.37 7.22 7.17a56.94 56.94 0 0 0 12.62 5.78c.09-.94.19-1.92.29-2.94-6.34-1.93-12.69-4.88-17.35-9.67a8.7 8.7 0 0 1 -2.55-4.41z" fill="#e6e7e8"/><path d="m412.85 327.66c-.64 1.86-1.14 3.78-1.7 5.67-1.08 3.65-2.14 7.29-3.21 10.95a18.4 18.4 0 0 1 -2.73-3.83 21.8 21.8 0 0 1 -1.15-2.5c-.09-.24-.18-.47-.26-.71 1.41-5.59 2.55-10 3.09-12a35.17 35.17 0 0 0 5.96 2.42z" fill="#f7c45a"/><path d="m442.35 348.26c-.92-5.74-2.09-13.16-3.39-18.79-1.86.23-3.68.41-5.56.5v.19c-.43 2.16-.67 4.39-1 6.57q-1 6.9-1.93 13.8l-.33 2.24 3.75.69 4.13.77c1.2.22 3.07.85 4.06-.44s.52-3.95.27-5.53z" fill="#6d87b5"/><path d="m427.11 330c-5.28-.39-8.7-.59-14.26-2.34-.64 1.86-1.14 3.78-1.7 5.67-1.08 3.65-2.14 7.29-3.21 10.95 4.49 4.82 10.93 6.35 16.81 7.48 1-9.69 1.92-18.09 2.29-21.09z" fill="#6d87b5"/><path d="m401.93 322.15a41.39 41.39 0 0 0 1.87 15.09c1.41-5.59 2.55-10 3.09-12a24.94 24.94 0 0 1 -4.8-3.24z" fill="#6d87b5"/><path d="m405.21 340.45a21.8 21.8 0 0 1 -1.15-2.5c-.09-.24-.18-.47-.26-.71-4.42 17.53-11.53 46.36-11.4 46.63a3.93 3.93 0 0 0 2 1.65 1.67 1.67 0 0 0 1.88-.51 3.73 3.73 0 0 0 .47-1.17c1.49-5.52 3-11 4.58-16.58.25-.87.49-1.74.74-2.61l2-7.17q1.67-5.81 3.34-11.57c.16-.54.32-1.09.47-1.63a18.4 18.4 0 0 1 -2.67-3.83z" fill="#f7c45a"/><path d="m426.47 302.7a46.75 46.75 0 0 1 -22.47-10.7c-3.6-3-7.84-7.24-9.35-12a11.41 11.41 0 0 1 -.54-4.38l-.15-1.25-8.87 1.87-6.87 1.45c-3.66.77-7 2-9 5.38a23.81 23.81 0 0 0 -2.26 6.21c-3.79 15.13-4.72 30.8-5.63 46.36-.18 3.07-.79 14.2.75 16.85 1.93 3.32 5.84 4.72 9.61 5.72l1.1.28 7.18 1.8 5.53 1.38c1.43.36 3.09.67 4.23-.26a4.86 4.86 0 0 0 1.33-2.93c1.11-5.7 2.7-19.24 3.81-24.94.47-2.38.82-4.81 1.46-7.15a25.55 25.55 0 0 1 2.34-5.79c.25-.46.52-.91.8-1.35v-.1-.31a2.58 2.58 0 0 1 -.27-1.09 3.05 3.05 0 0 1 .06-.6 3.12 3.12 0 0 1 1.29-2c3.45-2.31 8.82-.51 12.67-1.31a18.71 18.71 0 0 0 6.93-3 20.53 20.53 0 0 0 6.8-7.94z" fill="#6d87b5"/><path d="m394.08 275.6.54 4.38a11.41 11.41 0 0 1 -.54-4.38z" fill="#fff"/><path d="m386.78 379.29c.22 1.43-.79 3-1.55 4l-.3.42a13.74 13.74 0 0 1 -5 4.2 11.58 11.58 0 0 1 -7 .56 57 57 0 0 1 -20-7.59c-2.94-1.81-5.82-4-7.22-7.17a10.13 10.13 0 0 1 0-8c-.22 4.38.94 6.4 2.81 8.33 5 5.1 11.85 8.12 18.6 10 3.3.93 6.82 2 10.27 1.23a13.09 13.09 0 0 0 7.87-5.6 5.39 5.39 0 0 0 1-3.84c.18 1.17.34 2.28.52 3.46z" fill="#e6e7e8"/><path d="m370 372.36a14.11 14.11 0 0 0 8.25 1.69h.08a4 4 0 0 0 3.09-1.85 3.19 3.19 0 0 0 -.44-3.27 2.47 2.47 0 0 0 -1.82-1.31h-.16c0-.13 0-.27 0-.4h.05a20.38 20.38 0 0 1 3.23 2 10.25 10.25 0 0 1 3.86 6.66 5.39 5.39 0 0 1 -1 3.84 13.09 13.09 0 0 1 -7.87 5.6c-3.45.73-7-.3-10.27-1.23-6.75-1.91-13.64-4.93-18.6-10-1.87-1.93-3-3.95-2.81-8.33a8.5 8.5 0 0 1 .93-1.7 9.57 9.57 0 0 1 8.84-4c2.68.33 5.06 1.83 7.47 3.06a16 16 0 0 0 7.27 2.13l.64.08c-.24 2.54-.53 5.05-.74 7.03z" fill="#bcbec0"/><path d="m381 368.92a3.19 3.19 0 0 1 .44 3.27 4 4 0 0 1 -3.09 1.85h-.08c.25-1.76.51-4.09.78-6.45h.13a2.47 2.47 0 0 1 1.82 1.33z" fill="#939598"/><path d="m368.1 371a3.19 3.19 0 0 1 -.44-3.27 4 4 0 0 1 3.09-1.85h.08c-.25 1.76-.51 4.09-.78 6.45h-.13a2.47 2.47 0 0 1 -1.82-1.33z" fill="#939598"/><path d="m369.25 254.42a2.38 2.38 0 0 1 -2.25 3.28h-38.78a2.39 2.39 0 0 1 -2.22-1.48l-5.42-13.36-4.7-11.57a2.39 2.39 0 0 1 2.21-3.29h38.82a2.38 2.38 0 0 1 2.21 1.49zm-4.19 1a1.46 1.46 0 0 0 1.36-2l-9.05-21.8a2.52 2.52 0 0 0 -2.17-1.46h-35.42a1.08 1.08 0 0 0 -1.08 1.59l9.3 22.39a2.12 2.12 0 0 0 1.95 1.31z" fill="#183061"/><path d="m366.42 253.44a1.46 1.46 0 0 1 -1.36 2h-35.13a2.12 2.12 0 0 1 -1.95-1.31l-9.28-22.37a1.08 1.08 0 0 1 1.08-1.59h35.42a2.52 2.52 0 0 1 2.17 1.46z" fill="#f0f2f2"/><path d="m328.22 257.7h-14.3l6.66-14.84 5.42 13.36a2.39 2.39 0 0 0 2.22 1.48z" fill="#6d87b5"/><path d="m328.22 257.7c-.16 0-1.87-.13-2.06-.46a17.8 17.8 0 0 0 -8.68-7.48c.71-1.58 1.46-3.26 2.18-4.84l.68-1.52.19-.42s.06-.11.05-.12l5.42 13.36a2.39 2.39 0 0 0 2.22 1.48z" fill="#627ba0"/><path d="m283.61 171.87a86.55 86.55 0 0 1 16.3-6 8.76 8.76 0 0 1 4.36-.29 2.65 2.65 0 0 1 1.37.75c.17.19.33.35.51.52a2.91 2.91 0 0 1 .79 1.28 4.24 4.24 0 0 1 -.23 3.11c0 .07-.07.14-.1.2a9.82 9.82 0 0 1 -4.35 3.55c-1.44.76-2.28 1.23-3 1.6a24.15 24.15 0 0 1 -4.44 1.74l-.06.06a3.17 3.17 0 0 1 .3.34 3.7 3.7 0 0 1 .07 4 7.73 7.73 0 0 1 -3.08 2.78 18.06 18.06 0 0 1 -2 1l.07.19a2.61 2.61 0 0 0 .71 1.3l-.45.27a4.51 4.51 0 0 0 -.89 3.33 4.34 4.34 0 0 0 3.25 3.57l-.43.3s0 0-.38.39-.92.87-1.36 1.31a18 18 0 0 1 -3.09 2.68 8.7 8.7 0 0 1 -3.41 1.23l-.2.11a83.89 83.89 0 0 1 -5-12.16c-1.66-5.11-2.81-8.42-3.08-13.49h.54c2.53-1.39 4.92-2.54 7.28-3.67z" fill="#c5a28a"/><path d="m304.6 187.9a5.12 5.12 0 0 1 -1.21 3.86 9.56 9.56 0 0 1 -3.37 2.39 13.47 13.47 0 0 1 -5.41 1.18 6.18 6.18 0 0 1 -1.87-.28 4.34 4.34 0 0 1 -3.25-3.57 4.51 4.51 0 0 1 .89-3.33l.45-.27a3.88 3.88 0 0 0 2.28 1.06 8.12 8.12 0 0 0 3.94-.86 13 13 0 0 0 4.85-3.22 1.09 1.09 0 0 0 .13-.17l.2.16.5.06a1.81 1.81 0 0 1 1.13.79l.09.11a4.29 4.29 0 0 1 .43.89 4.9 4.9 0 0 1 .22 1.2z" fill="#c5a28a"/><path d="m303.33 179.42a5.88 5.88 0 0 1 -1.31 5.27 1.09 1.09 0 0 1 -.13.17 13 13 0 0 1 -4.85 3.22 8.12 8.12 0 0 1 -3.94.86 3.88 3.88 0 0 1 -2.28-1.06 2.61 2.61 0 0 1 -.71-1.3l-.07-.19a18.06 18.06 0 0 0 2-1 7.73 7.73 0 0 0 3.08-2.78 3.7 3.7 0 0 0 -.07-4 3.17 3.17 0 0 0 -.3-.34l.06-.06a24.15 24.15 0 0 0 4.44-1.74 4 4 0 0 1 4.08 2.95z" fill="#c5a28a"/><path d="m290.56 197.05c0 2.83.08 8.09-1.52 8.81h-.14c-.91.25-1.89-.37-2.86-1.51a19.81 19.81 0 0 1 -2.18-3.33l.2-.11a8.7 8.7 0 0 0 3.41-1.23 18 18 0 0 0 3.09-2.63z" fill="#d3bf92"/><path d="m209.89 216.6h-33.8c0-.15 0-.29.08-.44q1.5-8.21 3.62-16.27t4.83-16q2.73-7.87 6-15.54 2-4.54 4.16-9a1.9 1.9 0 0 0 .39-.41 13.22 13.22 0 0 0 .69-1.66 5.36 5.36 0 0 1 .34-.49 3.16 3.16 0 0 1 1-1 4.73 4.73 0 0 1 2.73-.65 17.17 17.17 0 0 1 4.56 1.34 7.17 7.17 0 0 0 4.66.45c2.84-.95 4-4.62 6.75-5.76a7.56 7.56 0 0 1 4.9.09 21 21 0 0 0 4.84 1.16c6.82.27 7.54-10 6.51-14.68a26.76 26.76 0 0 0 -2.58-6.83 15.37 15.37 0 0 0 11-.53 46.82 46.82 0 0 1 5.19 9.41c.18.45.37.9.54 1.36 2.43 6.08 4.5 12.28 7.21 18.25a46.8 46.8 0 0 0 4.54 8.16 9.81 9.81 0 0 0 5.74 4 10.9 10.9 0 0 0 3.07.25c3.3-.19 6.69-1.67 9.63-3.2a22.26 22.26 0 0 0 -.77 5.56c0 .41 0 .82.05 1.21.27 5.07 1.42 8.38 3.08 13.49a83.89 83.89 0 0 0 5 12.16 19.81 19.81 0 0 0 2.15 3.37c1 1.14 1.95 1.76 2.86 1.51h.14c-5.09 3.11-11.39 3.23-17.36 3.27-7.36 0-15 0-21.67-3.06.22 1.28.45 2.55.68 3.83 1.07 5.82 2.24 11.63 3.37 17.44h-.14a51.51 51.51 0 0 1 -16.38 6.61 53 53 0 0 1 -13 1.13 54.74 54.74 0 0 1 -7.17-.71l6.46-14.61a2.27 2.27 0 0 0 -2.08-3.18z" fill="#fbe4ab"/><path d="m276.17 169.36a1.85 1.85 0 0 1 .51-.88 2.82 2.82 0 0 1 3.13.23 11 11 0 0 1 3 3.5c-2.13 1-4.29 2.06-6.57 3.18h-.49c0-.35 0-.73 0-1.1a18.28 18.28 0 0 1 .42-4.93z" fill="#d3bf92"/><path d="m277.55 357.73c.64.47 1.37 1.2 1 1.9-.25.5-.9.61-1.45.65a85 85 0 0 1 -32.54-3.67 7.59 7.59 0 0 0 -2.48-.49 2.36 2.36 0 0 0 -2.08 1.22 8 8 0 0 1 -.52 1.5 2.43 2.43 0 0 1 -2.13.59l-5-.26a10.81 10.81 0 0 1 -2.12-.28 33.57 33.57 0 0 1 -2.51-2.7 10 10 0 0 1 -.11-1.73c0-2.1 0-4.19 0-6.29a6.48 6.48 0 0 0 1.23-.74 8.41 8.41 0 0 0 1.93-2.06c4.9.29 16.76.47 20.05-.07a43.38 43.38 0 0 0 12.08-4 39.29 39.29 0 0 0 2.55 4.33 50 50 0 0 0 12.1 12.1z" fill="#3d3d3d"/><path d="m260.67 126.43c2.05 1.46 5.19 2.9 5.06 5.85-.06 1.41-1.11 2.24-2.32 2.83-2.32 1.12-5.25.22-7.53 1.41a9 9 0 0 0 -2.68 2.55 9.13 9.13 0 0 1 -2.65 2.57 2.76 2.76 0 0 1 -2.62.21 10.78 10.78 0 0 1 -1.46-.68l-.14.06c-.17-.46-.36-.91-.54-1.36a46.82 46.82 0 0 0 -5.19-9.41 14.25 14.25 0 0 0 8.38-9.93 19.87 19.87 0 0 0 .42-8c2.92 5.47 6.23 10.33 11.27 13.9z" fill="#b1b1b1"/><path d="m249.4 112.58a19.87 19.87 0 0 1 -.42 8 14.25 14.25 0 0 1 -8.38 9.93 15.37 15.37 0 0 1 -11 .53 64.49 64.49 0 0 0 -6.14-9.16c-1.09-1.41-2.7-2.87-1.94-4.85.46-1.21 1.41-1.35 2.56-1.35a3.76 3.76 0 0 0 1.06-.07c.29-.08.49-.39.68-.61a11.1 11.1 0 0 0 1.2-1.87 19.59 19.59 0 0 0 1.45-4.21c.61-2.48 1-5 2.25-7.28s3.46-4.13 6-4.09c1.06 0 2.08.45 3.14.44a2.1 2.1 0 0 1 .9 0 11.6 11.6 0 0 1 1.4.73l.15.08s0 0 0 0c3.6 2.77 5.62 7.27 6.63 11.7.23.75.36 1.43.46 2.08z" fill="#c5a28a"/><path d="m243.1 95c.34.8 1.57 4.15-.31 4a1.48 1.48 0 0 1 -.41-.12s0 0 0 0l-.15-.08a11.6 11.6 0 0 0 -1.4-.73 2.1 2.1 0 0 0 -.9 0c-1.06 0-2.08-.43-3.14-.44-2.55 0-4.79 1.85-6 4.09s-1.64 4.8-2.25 7.28a19.59 19.59 0 0 1 -1.45 4.21 11.1 11.1 0 0 1 -1.2 1.87c-.19.22-.39.53-.68.61a3.76 3.76 0 0 1 -1.06.07c-1.15 0-2.1.14-2.56 1.35-.76 2 .85 3.44 1.94 4.85a64.49 64.49 0 0 1 6.14 9.16 26.76 26.76 0 0 1 2.58 6.83c1 4.71.31 15-6.51 14.68a21 21 0 0 1 -4.84-1.16 7.56 7.56 0 0 0 -4.9-.09c-2.77 1.14-3.91 4.81-6.75 5.76a7.17 7.17 0 0 1 -4.66-.45 17.17 17.17 0 0 0 -4.56-1.34 4.73 4.73 0 0 0 -2.73.65 3.16 3.16 0 0 0 -1 1 5.36 5.36 0 0 0 -.34.49 13.22 13.22 0 0 1 -.69 1.66 1.9 1.9 0 0 1 -.39.41 3.16 3.16 0 0 1 -3.39.09 6.78 6.78 0 0 1 -2.13-2.1 5.76 5.76 0 0 1 -.61-1.08 2.48 2.48 0 0 0 -.32-.54 15.31 15.31 0 0 1 -1.72-3.06 36.92 36.92 0 0 1 -2.53-17.3 79.1 79.1 0 0 1 2.09-12.68c2.21-9.3 5.65-18.65 11.86-26a39.77 39.77 0 0 1 2.73-2.93 30.65 30.65 0 0 1 36.14-5.1 20.52 20.52 0 0 1 3 2 10.79 10.79 0 0 1 3.1 4.14z" fill="#b1b1b1"/><path d="m238.16 364.88a63.34 63.34 0 0 1 -7.1-5.27l-.77-.72a33.57 33.57 0 0 1 -2.51-2.7c-.65-.76-1.26-1.54-1.83-2.35a36.12 36.12 0 0 1 -2.54-4.16h-.07c-.57.17-1.15.32-1.73.44-7.33 1.55-18.69 2.49-26.09 1.33-1.19-.19-4.59-.55-8.28-1.34v11.65a5.09 5.09 0 0 0 .79 3.35c.93 1.13 2.59 1.29 4.06 1.36l5.09.26a2.49 2.49 0 0 0 2.18-.59 7.56 7.56 0 0 0 .54-1.49 2.41 2.41 0 0 1 2.13-1.23 8 8 0 0 1 2.54.49 89.41 89.41 0 0 0 33.36 3.68c.57 0 1.23-.16 1.48-.65.42-.85-.65-1.64-1.25-2.06z" fill="#3d3d3d"/><path d="m256.87 243.18c-.82-5.3-1.79-10.57-2.81-15.83h-.14a51.51 51.51 0 0 1 -16.42 6.65 53 53 0 0 1 -13 1.13 54.74 54.74 0 0 1 -7.17-.71l-10.33 23.28h52.11q-1.11-7.26-2.24-14.52z" fill="#f0f2f2"/><path d="m268.26 313.35q-1.92-11.7-3.86-23.38-2-12.36-4-24.73h-73.18c-4 22.25-8.49 44.5-11.11 67a86 86 0 0 0 -.83 10.62c0 3.94 6.32 6.1 12 7.29v-.35l36.1-.08c.48-.14 1-.29 1.44-.46a28.75 28.75 0 0 0 2.91-1.05 6.48 6.48 0 0 0 1.23-.74 8.41 8.41 0 0 0 1.93-2.06c4.9.29 16.76.47 20.05-.07a43.38 43.38 0 0 0 12.08-4c3.46-1.8 6.3-4.14 7-6.95 1.59-6.79-.67-14.39-1.76-21.04zm-36.26 28.94-4.27.17 4.27-.17 15.45-.62zm30.89-1.23.06.11z" fill="#f0f2f2"/><path d="m187.24 350.11c3.69.79 7.09 1.15 8.28 1.34 7.4 1.16 18.76.22 26.09-1.33.58-.12 1.16-.27 1.73-.44l-36.1.08z" fill="#f0f2f2"/><path d="m380.13 261.61a20.06 20.06 0 0 1 -1-3.91h-277.7l-3.87 7.54h284.34a20.31 20.31 0 0 1 -1.77-3.63z" fill="#cde6fa"/><path d="m165.15 265.24v118.37a2 2 0 0 1 -2 2h-5.05a2 2 0 0 1 -2-2v-118.37z" fill="#b8dbef"/><path d="m144.59 370.9a7.85 7.85 0 0 1 0 1 4.55 4.55 0 0 1 -.85 2.49 1.13 1.13 0 0 1 -.6.4l-.44.14a8.65 8.65 0 0 1 -2.66.51q-6.79.42-13.6.58a8.12 8.12 0 0 0 -1.69-3.22 120.33 120.33 0 0 0 19.7-1.86z" fill="#e6e7e8"/><path d="m144.59 370.9h-.14a120.33 120.33 0 0 1 -19.7 1.86 6.5 6.5 0 0 0 -.63-.66 6.82 6.82 0 0 0 -1-.77c-1.9-1.2-4.21-1.52-6.31-2.31a14.85 14.85 0 0 1 -8.57-8.66l-2.46-.09c2.09-.37 4.16-.83 6.21-1.36a5.93 5.93 0 0 0 3-1.45c1.1-1.22 1-3 .8-4.58a42 42 0 0 0 4.33-.54c.92-.17 2-.36 3-.63v.07a21.32 21.32 0 0 0 3.11 4.15c3.67 3.84 8.62 6.19 13.59 8.07a7.28 7.28 0 0 1 3.39 2.05 6.45 6.45 0 0 1 1 2.64 13.77 13.77 0 0 1 .38 2.21z" fill="#bcbec0"/><path d="m118.7 245.06a11.41 11.41 0 0 0 1.6.49c3.64.73 8-.05 11.46 1.52a6.57 6.57 0 0 1 2.21 1.66 4.87 4.87 0 0 1 1.08 3.55 3.27 3.27 0 0 1 -2.86 2.71 5 5 0 0 1 -.43 1.23c-.9 1.46-2.6 1.46-4.26 1.48s-14.77 0-17.07 0c.65-2.37 1.17-5.06 2-7.33a11.6 11.6 0 0 1 2-3.67 9.37 9.37 0 0 1 2-1.74 3.74 3.74 0 0 0 .7-.49z" fill="#fadfc7"/><path d="m126.73 378.41v.37a4.91 4.91 0 0 1 -1.49 3.44 5.47 5.47 0 0 1 -3.46.73q-8.7-.09-17.41-.64c-5.8-.36-11.57-1.14-17.35-1.73-3.61-.36-8.47-.25-10.78-3.55-.14-1.12-.29-2.29-.43-3.5a186.11 186.11 0 0 0 50.92 4.88z" fill="#e6e7e8"/><path d="m126.53 376.33c0-.11 0-.23-.09-.34a8.12 8.12 0 0 0 -1.69-3.22 6.5 6.5 0 0 0 -.63-.66 6.82 6.82 0 0 0 -1-.77c-1.9-1.2-4.21-1.52-6.31-2.31a14.85 14.85 0 0 1 -8.57-8.66l-2.46-.09a65.46 65.46 0 0 1 -8.49 1 57.5 57.5 0 0 1 -7.07-.12 47.27 47.27 0 0 1 -9.42-1.76l-2.72-.87c-.62 3.58-2.15 7.77-2.74 11.32.16 1.28.31 2.52.47 3.72a186.11 186.11 0 0 0 50.94 4.88 7.65 7.65 0 0 0 -.22-2.12z" fill="#bcbec0"/><path d="m89.09 42.54a1.34 1.34 0 1 0 -.74 2.46 1.32 1.32 0 0 0 1.16-.67 1.25 1.25 0 0 0 .19-.67 1.33 1.33 0 0 0 -.61-1.12zm-.74-24.62a25.75 25.75 0 1 1 -25.74 25.75 25.75 25.75 0 0 1 25.74-25.75z" fill="#ebf6fc"/><path d="m89.31 42.2a1.67 1.67 0 0 0 -1-.29 1.76 1.76 0 0 0 0 3.51 1.72 1.72 0 0 0 1.51-.87 1.62 1.62 0 0 0 .25-.88 1.72 1.72 0 0 0 -.76-1.47z" fill="#b8dbef"/><path d="m75.07 373.36a7.14 7.14 0 0 0 .84 3.18c.1.17.2.34.31.49 1 7.58 1.59 12.8 1.47 13a2.2 2.2 0 0 1 -1.43.85 3.86 3.86 0 0 1 -2.51-.76c-.17-.15-3.24-19.9-6-38.37l.87-.13a5.21 5.21 0 0 0 .52 1.71c.89 1.73 2.79 2.65 4.56 3.45.55 4.52 1.12 9 1.64 13.07a15.9 15.9 0 0 0 -.27 3c-.02.15-.01.33 0 .51z" fill="#f7c45a"/><path d="m76.22 377c-.11-.15-.21-.32-.31-.49a7.14 7.14 0 0 1 -.84-3.18l.72.17c.14 1.24.29 2.41.43 3.5z" fill="#f7c45a"/><path d="m75.79 373.53-.72-.17c0-.18 0-.36 0-.54a15.9 15.9 0 0 1 .27-3c.14 1.27.29 2.51.45 3.71z" fill="#f7c45a"/><path d="m74.14 318.6c1 .82 1.89 1.95.78 2.43l-.36.14a9.66 9.66 0 0 0 -.42-2.57z" fill="#dcdbdc"/><path d="m73.68 356.74c-1.77-.8-3.67-1.72-4.56-3.45a5.21 5.21 0 0 1 -.52-1.71 12.22 12.22 0 0 1 .07-3 60.73 60.73 0 0 1 2.33-10.78l.33-1.06c.67 6.19 1.5 13.18 2.35 20z" fill="#f7c45a"/><path d="m71 161.51.1.14a14 14 0 0 1 .9 2.65 15.63 15.63 0 0 1 .72 3.06 21.73 21.73 0 0 1 -1.15 10.73 22.2 22.2 0 0 1 -2.65 5.06 21.21 21.21 0 0 1 -1.78 2.23c-.32.35-.65.7-1 1l-.52.48a5 5 0 0 1 -.72.47 20.17 20.17 0 0 1 -5.5 2.47c-5.67 1.57-13.51.77-18.42-2.47a12.32 12.32 0 0 1 2.75-4.3c1.43-1.68 2.9-3.73 2.5-5.91-.35-2-2.19-3.88-1.31-5.67a3.35 3.35 0 0 1 3.26-1.5c1.26.06 2.5.46 3.77.42 2.12-.05 3.91-1.57 5.32-3a52.2 52.2 0 0 0 4.4-5.11c.74-1 1.44-2 2.08-3.08a6 6 0 0 1 .95-1.28 1.75 1.75 0 0 1 1.46-.5c.83.16 1.25 1.32 1.86 1.84s1.15 1 1.77 1.41c.46.35.88.43 1.21.86z" fill="#fadfc7"/><path d="m71.28 336.74-.28 1.06a60.73 60.73 0 0 0 -2.31 10.75 12.22 12.22 0 0 0 -.07 3l-.87.13c-2-12.81-3.78-25-4.43-29.62 2.2-.12 4.38-.26 6.54-.39.2 3.66.74 8.98 1.42 15.07z" fill="#f7c45a"/><path d="m74.1 156.38c-1.69-5.1-6.1-8.95-11-11.16-9.76-4.4-20.89-3-29.77 2.78-7.59 4.93-11.87 11.69-12.56 20.75-.11 1.45-.17 2.95-.25 4.47-.32 5.49-1.61 9.46-5.29 13.55a12.89 12.89 0 0 0 -2.35 3.78c-1.62 4-.68 8.31-1.51 12.41-.78 3.9-6.71 11-.63 13.81 1.61.74 3.71.42 5 1.66 1.11 1.1 1.15 3.07 2.46 3.92a2.91 2.91 0 0 0 3.53-.68c.45-1.34.92-2.68 1.43-4 .25-.66.5-1.31.77-2 .12-.31.25-.62.38-.94.07-.15.13-.31.2-.46a3.69 3.69 0 0 0 .17-.42 11.63 11.63 0 0 1 .61-1.51c.27-.6.55-1.21.84-1.8a4.36 4.36 0 0 1 .33-.6 1.26 1.26 0 0 1 .49-.48 1 1 0 0 1 .51.13 3 3 0 0 1 .52.3c.3.21.58.45.87.67a2.63 2.63 0 0 0 .82.45c1.78.44 3.3-1.56 5.13-1.64s3.26 2 4.17 3.75 2.45 3.75 4.39 3.34c1.52-.31 2.36-2.07 2.25-3.61a11.77 11.77 0 0 0 -1.61-4.3 7.29 7.29 0 0 1 -1.07-4.44c.25-1.41 1.22-2.57 1.85-3.85 1.09-2.21.11-4.42-1.26-6.23-1.2-1.58-2.6-3.21-2.68-5.18v-.14a4.73 4.73 0 0 1 .18-1.35 12.32 12.32 0 0 1 2.75-4.3c1.43-1.68 2.9-3.73 2.5-5.91-.35-2-2.19-3.88-1.31-5.67a3.35 3.35 0 0 1 3.26-1.5c1.26.06 2.5.46 3.77.42 2.12-.05 3.91-1.57 5.32-3a52.2 52.2 0 0 0 4.4-5.11c.74-1 1.44-2 2.08-3.08a6 6 0 0 1 .95-1.28 1.75 1.75 0 0 1 1.46-.5c.83.16 1.25 1.32 1.86 1.84a12.13 12.13 0 0 0 3.11 2.15 3 3 0 0 0 1.82.22 2.07 2.07 0 0 0 .69-.29 2.58 2.58 0 0 0 .82-1.82 6.85 6.85 0 0 0 -.4-3.15z" fill="#f4c36c"/><path d="m34.45 319.9a52.42 52.42 0 0 0 5.95 1.39c-2.75 13.56-8.52 60.86-9.49 61.54a2.26 2.26 0 0 1 -1.53.36 3.93 3.93 0 0 1 -2.12-1.27c-.18-.29 5.8-51.31 7.19-62.02z" fill="#f7c45a"/><path d="m74.14 318.6a9.24 9.24 0 0 0 -1.18-.85 16.05 16.05 0 0 0 -4.7-1.56c-6.27-1.26-12.64-2.12-18.84-3.7s-12.3-3.93-17.26-7.86a29.17 29.17 0 0 1 -9.4-14.19q-.17-.49-.3-1c-2.94-9.65-3.57-19.88-3.41-29.92.09-5.14.4-10.27.79-15.4.2-2.62 2-10.26-1.13-11.74h-.06a.8.8 0 0 0 -.66 0c-1.71.71-2.32 7.05-2.54 8q-1 4.44-1.8 8.91c-1.86 10.23-3.73 20.84-3.66 31.38.06 9.91 1.4 21.12 8 29a30.23 30.23 0 0 0 6.23 5.6 31.63 31.63 0 0 0 5.58 3l.63.25c1.32.53 2.66 1 4 1.39a52.42 52.42 0 0 0 5.95 1.39c7.46 1.3 15.25 1.19 22.87.79 2.2-.12 4.38-.26 6.54-.39l2-.12a11.07 11.07 0 0 0 2.8-.4 9.66 9.66 0 0 0 -.45-2.58z" fill="#dcdbdc"/><path d="m29.81 318.26.63.25c-4.76 14.69-18.16 69-19.29 69.69a2.25 2.25 0 0 1 -1.65.26 3.93 3.93 0 0 1 -2-1.66c-.16-.36 14.09-60.83 16.77-71.56a31.63 31.63 0 0 0 5.54 3.02z" fill="#f7c45a"/><path d="m117.17 242c-.08-.53-.5-.79-1-1a23.82 23.82 0 0 0 -7-1.75c-5.59-.87-11.31-1.69-16.79-3.06a31.46 31.46 0 0 1 -6.56-2.89 33.68 33.68 0 0 1 -6.82-5.52 45.31 45.31 0 0 1 -6.75-9c-2.48-4.27-3.12-12-4.68-16.68-1.76-5.25-3.15-8.1-5.16-13.36-1.85.91-13.83 3.58-21.42-1.37a4.73 4.73 0 0 0 -.18 1.35v.14c.08 2 1.48 3.6 2.68 5.18 1.37 1.81 2.35 4 1.26 6.23-.63 1.28-1.6 2.44-1.85 3.85a7.29 7.29 0 0 0 1.1 4.43 11.77 11.77 0 0 1 1.63 4.33c.11 1.54-.73 3.3-2.25 3.61-1.94.41-3.47-1.58-4.39-3.34s-2.19-3.83-4.17-3.75-3.35 2.08-5.13 1.64c-.92-.22-2-1.85-3.05-1.49-.65 1.38-1.29 2.78-1.88 4.2q-1.66 3.88-3 7.92c-1.18 3.51-2.19 7.09-3.05 10.7h.06c3.13 1.48 1.33 9.12 1.13 11.74-.39 5.13-.7 10.26-.79 15.4-.16 10 .47 20.27 3.41 29.92a104.24 104.24 0 0 0 41-10.27 48.44 48.44 0 0 0 13.49-9.56 51 51 0 0 0 5.23 1.08 61.09 61.09 0 0 0 8.3.67c4 0 8.06-.45 11.61-2.4a15.84 15.84 0 0 0 4.49-3.73l.37-.72.71-1.38.87-1.71.87-1.69.69-1.34c.08-.15.15-.31.24-.46a3 3 0 0 0 .24-.43 4.42 4.42 0 0 0 .1-.73c.13-1.07.3-2.12.52-3.17s.49-2.09.81-3.11.67-2 1.07-3 .85-2 1.34-2.9a2.11 2.11 0 0 1 1.15-1.21c.25-.07.52 0 .76-.11a1.16 1.16 0 0 0 .86-1.1.76.76 0 0 0 -.07-.16z" fill="#93d3ea"/><path d="m484.72 262.41a.25.25 0 0 1 -.12 0 .34.34 0 0 1 -.21-.45 44.49 44.49 0 0 0 1.25-4.53c1.84-8.09 4.88-29.56-6.62-54.17a.35.35 0 1 1 .64-.3c11.6 24.8 8.53 46.46 6.68 54.63-.41 1.76-.85 3.35-1.28 4.6a.36.36 0 0 1 -.34.22z" fill="#d1d3d4"/><path d="m399.17 319.44h-.05c-3.57-.49-7.33-2.73-10.64-4.71l-1.44-.86a62.5 62.5 0 0 1 -9.79-7.07.35.35 0 0 1 0-.5.36.36 0 0 1 .5 0 62.47 62.47 0 0 0 9.69 7l1.44.86c3.26 1.94 7 4.15 10.38 4.62a.35.35 0 0 1 .3.4.34.34 0 0 1 -.39.26z" fill="#50627c"/><path d="m393.82 274.4h-.08a.37.37 0 0 1 -.27-.43 11.94 11.94 0 0 1 .48-1.5.34.34 0 0 1 .46-.2.36.36 0 0 1 .2.46 10.88 10.88 0 0 0 -.45 1.4.35.35 0 0 1 -.34.27z" fill="#d1d3d4"/><path d="m394.22 272.92a13.94 13.94 0 0 1 -5.91-1.27 15.07 15.07 0 0 1 -7-6.76c-1.87-3.57-4.51-10.49-1.21-16.8 1.83-3.5 5.07-5.9 8.21-8.22 1.16-.85 2.35-1.74 3.44-2.65.4-.33.79-.67 1.16-1 4.5-4.13 7.43-8.93 10.54-14 .84-1.38 1.68-2.77 2.57-4.15 3.18-5 7.11-10.61 12.14-14.89a36.93 36.93 0 0 1 6.53-4.46l.27-.14.57-.3a.35.35 0 0 1 .48.16.37.37 0 0 1 -.16.48l-.56.28-.27.14a36.42 36.42 0 0 0 -6.4 4.38c-5 4.22-8.85 9.81-12 14.73-.89 1.38-1.73 2.77-2.57 4.14-3.13 5.13-6.08 10-10.66 14.17-.38.35-.78.7-1.18 1-1.11.93-2.31 1.82-3.48 2.68-3.07 2.27-6.25 4.62-8 8-3.14 6-.59 12.7 1.22 16.14a14.37 14.37 0 0 0 6.65 6.45 13.14 13.14 0 0 0 5.61 1.2h.55a18.7 18.7 0 0 0 13.43-6.51 46.6 46.6 0 0 0 8.56-16.37.35.35 0 0 1 .44-.24.35.35 0 0 1 .24.44 46.5 46.5 0 0 1 -4.18 10 47.28 47.28 0 0 1 -4.5 6.65 19.48 19.48 0 0 1 -14 6.77z" fill="#d1d3d4"/><path d="m132.53 255h-.07a.36.36 0 0 1 -.28-.42 3 3 0 0 0 -.65-2.36 5.51 5.51 0 0 0 -3.19-1.72 18.94 18.94 0 0 0 -3.91-.23v-.35-.35a19.13 19.13 0 0 1 4.06.23 6.22 6.22 0 0 1 3.6 2 3.69 3.69 0 0 1 .8 2.94.35.35 0 0 1 -.36.26z" fill="#dbc4b2"/><path d="m76.74 269.92h-.09a41.42 41.42 0 0 1 -11.85-5.14 54.91 54.91 0 0 1 -15.36-15.25 68.37 68.37 0 0 1 -5.92-10.34 66.38 66.38 0 0 1 -4-11.23c-.3-1.14-.58-2.35-.83-3.61a.36.36 0 0 1 .7-.14c.25 1.24.52 2.45.81 3.57a66.41 66.41 0 0 0 9.8 21.33 54.05 54.05 0 0 0 15.16 15.06 41 41 0 0 0 11.65 5.06.35.35 0 0 1 .25.43.34.34 0 0 1 -.32.26z" fill="#76abb7"/><path d="m116.58 241.93a.39.39 0 0 1 -.21-.06c-2.78-2-8.62-1.75-14.79-1.53-7 .25-14.89.52-20.12-2.27-5.8-3.1-10.59-8.38-14.23-15.69a.37.37 0 0 1 .16-.48.35.35 0 0 1 .48.16c3.57 7.17 8.26 12.35 13.93 15.38 5.06 2.71 12.86 2.43 19.75 2.19 6.3-.22 12.25-.43 15.23 1.66a.35.35 0 0 1 -.2.64z" fill="#76abb7"/><path d="m125 373.15a.37.37 0 0 1 -.28-.14c-.09-.12-.18-.24-.28-.35a5.91 5.91 0 0 0 -.6-.63 6.25 6.25 0 0 0 -1-.73 15.14 15.14 0 0 0 -4-1.56c-.75-.22-1.52-.44-2.26-.72a15.18 15.18 0 0 1 -8.78-8.87.35.35 0 1 1 .66-.24 14.5 14.5 0 0 0 8.37 8.45c.71.27 1.47.49 2.21.7a16 16 0 0 1 4.16 1.64 7 7 0 0 1 1.07.81 7.12 7.12 0 0 1 .66.69c.11.12.21.25.31.38a.36.36 0 0 1 -.29.57z" fill="#a7a9ac"/><path d="m88.35 70.83a27.17 27.17 0 1 1 27.16-27.16 27.19 27.19 0 0 1 -27.16 27.16zm0-51.49a24.33 24.33 0 1 0 24.33 24.33 24.36 24.36 0 0 0 -24.33-24.33z" fill="#e1f1fd"/><path d="m89.09 43.25a.69.69 0 0 1 -.39-.12.71.71 0 0 1 -.21-1l9.18-14.06a.71.71 0 0 1 1.19.77l-9.18 14.09a.69.69 0 0 1 -.59.32z" fill="#b8dbef"/><path d="m101.14 51.76a.7.7 0 0 1 -.36-.1l-11.63-6.66a.71.71 0 1 1 .71-1.22l11.63 6.71a.7.7 0 0 1 .26 1 .71.71 0 0 1 -.61.27z" fill="#b8dbef"/><path d="m489.7 358.28a.36.36 0 0 1 -.24-.09.34.34 0 0 1 0-.49c.8-.85 1.6-1.7 2.32-2.59 1.6-1.93 2.88-3.51 4.42-5.46a.36.36 0 0 1 .5-.06.35.35 0 0 1 .05.5c-1.54 2-2.82 3.54-4.42 5.48-.74.9-1.55 1.76-2.33 2.59a.39.39 0 0 1 -.3.12z" fill="#414042"/><path d="m487.29 341.44a.34.34 0 0 1 -.35-.33c0-.36 0-.74 0-1.15-.17-6.7 1.11-20.18 1.6-25.26l3.28-33.9q.54-5.66 1.09-11.3a.34.34 0 0 1 .38-.31.34.34 0 0 1 .32.38q-.54 5.65-1.09 11.3l-3.28 33.9c-.43 4.58-1.76 18.52-1.59 25.18v1.12a.35.35 0 0 1 -.33.37z" fill="#122444"/><path d="m501 221.13a8.92 8.92 0 0 1 -2.67-.38h-.09a.35.35 0 1 1 .22-.67h.09c2 .63 4.65.4 7.88-.68a19.12 19.12 0 0 0 1.93-.8.35.35 0 1 1 .3.64 19.56 19.56 0 0 1 -2 .83 18.18 18.18 0 0 1 -5.66 1.06z" fill="#aa8d7d"/><path d="m502.78 229.56a9.28 9.28 0 0 1 -3.63-.6.35.35 0 1 1 .28-.65c3.79 1.63 11.8-.88 11.88-.91a.34.34 0 0 1 .46.17.37.37 0 0 1 -.19.48 33.68 33.68 0 0 1 -8.8 1.51z" fill="#aa8d7d"/><path d="m250.43 206.31a.5.5 0 0 1 -.49-.42 211.36 211.36 0 0 1 -3.29-30 .5.5 0 0 1 1 0 209.61 209.61 0 0 0 3.28 29.86.51.51 0 0 1 -.41.58z" fill="#d3bf92"/><path d="m209.89 217.1a.5.5 0 0 1 -.48-.52 122.36 122.36 0 0 1 2.8-22.14 132.1 132.1 0 0 1 6-19.34l.73-1.78a.5.5 0 0 1 .66-.26.5.5 0 0 1 .26.65c-.25.59-.49 1.18-.73 1.77a131.1 131.1 0 0 0 -6 19.18 120.49 120.49 0 0 0 -2.78 22 .5.5 0 0 1 -.46.44z" fill="#d3bf92"/><path d="m230.85 345.72a.32.32 0 0 1 -.16 0 .34.34 0 0 1 -.15-.47l.17-.34c.21-.38.59-1.08.66-1.28a6.22 6.22 0 0 0 .25-1.34c.25-2.53.17-9.15-1.6-26.29l-.77-7.47q-.67-6.56-1.35-13.14l-2.26-22a.35.35 0 0 1 .36-.39.36.36 0 0 1 .39.31l2.26 21.95c.46 4.39.91 8.76 1.35 13.14l.77 7.46c1.43 13.81 2 22.71 1.6 26.44a6 6 0 0 1 -.29 1.51c-.08.22-.37.78-.69 1.37l-.18.33a.34.34 0 0 1 -.36.21z" fill="#bcbec0"/><path d="m295.07 179a.36.36 0 0 1 -.34-.25.36.36 0 0 1 .23-.44 21.62 21.62 0 0 0 4.26-1.67.36.36 0 0 1 .33.63 22.81 22.81 0 0 1 -4.37 1.71z" fill="#9b806f"/><path d="m283.69 188.05a.35.35 0 0 1 -.35-.35.35.35 0 0 1 .34-.36 17.38 17.38 0 0 0 6.23-1.28 18.22 18.22 0 0 0 1.94-.94 7.35 7.35 0 0 0 2.94-2.65 3.34 3.34 0 0 0 0-3.57 2.52 2.52 0 0 0 -.27-.3 5 5 0 0 0 -3.45-1.08 17.78 17.78 0 0 0 -9.48 2.53.35.35 0 0 1 -.48-.12.36.36 0 0 1 .12-.49 18.68 18.68 0 0 1 9.86-2.63 5.6 5.6 0 0 1 3.91 1.29 3 3 0 0 1 .33.38 4 4 0 0 1 .1 4.34 8 8 0 0 1 -3.22 2.92 21.93 21.93 0 0 1 -2 1 18.12 18.12 0 0 1 -6.48 1.33z" fill="#9b806f"/><path d="m294.22 189a7.13 7.13 0 0 1 -2-.26 4.18 4.18 0 0 1 -2.59-2 .35.35 0 0 1 .15-.48.37.37 0 0 1 .48.15 3.47 3.47 0 0 0 2.16 1.64c3.07.88 7.18-.89 9.09-3.1a.5.5 0 0 0 .1-.13l.59.39a1.28 1.28 0 0 1 -.17.22 11.16 11.16 0 0 1 -7.81 3.57z" fill="#9b806f"/><path d="m292.21 195.4h-.1a4.67 4.67 0 0 1 -3.5-3.87c-.2-1.47 1.24-3.46 1.69-4a.35.35 0 0 1 .49-.06.34.34 0 0 1 .07.49c-.84 1.08-1.68 2.57-1.55 3.52a4 4 0 0 0 3 3.28.35.35 0 0 1 .23.44.36.36 0 0 1 -.33.2z" fill="#9b806f"/><path d="m221.72 216.6h-62.05a2.26 2.26 0 0 0 -2.07 1.4l-17.6 39.7h67l10.3-23.31 6.46-14.61a2.27 2.27 0 0 0 -2.04-3.18zm-39 18.33a3.77 3.77 0 1 1 -3.77 3.76 3.76 3.76 0 0 1 3.75-3.76z" fill="#183061"/><path d="m117.12 241.59a.88.88 0 0 1 .22.21 4.57 4.57 0 0 1 .78 1.23 3.72 3.72 0 0 0 .19.34 3.38 3.38 0 0 1 .42 1.46c0 .08 0 .19-.1.22a.2.2 0 0 1 -.13 0h-.15c-.57-.17-1.15-.33-1.72-.53l-.28-.1-1.22-.46a.53.53 0 0 1 -.31-.23.5.5 0 0 1 .07-.39 5.16 5.16 0 0 1 .72-1.22l.18-.18a1.88 1.88 0 0 1 .6-.37 1 1 0 0 1 .34-.08.24.24 0 0 1 .12 0 1.73 1.73 0 0 1 .27.1z" fill="#76abb7"/><path d="m114.82 243.67s-3.22 4.35-4.25 14h3.12s-.18-9.42 5-12.65c.01.04-2.54-.96-3.87-1.35z" fill="#dbc4b2"/><path d="m364.28 369.16a.72.72 0 0 1 -.71-.7 4.06 4.06 0 0 1 2.47-3.75.72.72 0 0 1 .92.39.7.7 0 0 1 -.38.92 2.65 2.65 0 0 0 -1.59 2.42.71.71 0 0 1 -.7.72z" fill="#a7a9ac"/><path d="m360.85 367.9a.71.71 0 0 1 -.71-.67 4.25 4.25 0 0 1 .64-2.43 4.16 4.16 0 0 1 1.94-1.6.71.71 0 0 1 .53 1.32 2.69 2.69 0 0 0 -1.69 2.64.72.72 0 0 1 -.68.74z" fill="#a7a9ac"/><path d="m420.65 364.28h-.12a.71.71 0 0 1 -.57-.82 5 5 0 0 1 2.59-3.52.71.71 0 0 1 .65 1.26 3.59 3.59 0 0 0 -1.85 2.51.71.71 0 0 1 -.7.57z" fill="#a7a9ac"/><path d="m417.76 362.71h-.17a.71.71 0 0 1 -.52-.86 4.7 4.7 0 0 1 2.62-3.1.71.71 0 0 1 .57 1.29 3.23 3.23 0 0 0 -1.81 2.15.71.71 0 0 1 -.69.52z" fill="#a7a9ac"/><path d="m371.65 358.19 8.28 2.08-.83 6.64s-1.89-4.1-7.88-4.91z" fill="#36543b"/><path d="m430.13 352.77 3.73.78.94 10.31s-.74-2.6-5.62-4.58z" fill="#36543b"/><path d="m337.27 237.07h-10.38a.94.94 0 0 1 -.86-.57l-.35-.87a.92.92 0 0 1 .85-1.28h10.38a.93.93 0 0 1 .86.57l.36.87a.93.93 0 0 1 -.86 1.28z" fill="#d1d3d4"/><path d="m339.36 241.45h-10.48a.88.88 0 0 1 -.82-.54l-.4-1a.88.88 0 0 1 .82-1.21h10.52a.88.88 0 0 1 .82.54l.4 1a.88.88 0 0 1 -.86 1.21z" fill="#d1d3d4"/><path d="m359.78 248.35h-10.49a.86.86 0 0 1 -.81-.54l-.4-1a.87.87 0 0 1 .81-1.21h10.49a.88.88 0 0 1 .81.54l.4 1a.88.88 0 0 1 -.81 1.21z" fill="#d1d3d4"/><path d="m182.7 234.35a4.34 4.34 0 1 1 -4.35 4.34 4.34 4.34 0 0 1 4.35-4.34z" fill="#bcbec0"/><path d="m78.06 358.49s12.38 5.44 30.16 1.31a14.51 14.51 0 0 0 1.58 3.3s-8.51 5.12-32.89.22z" fill="#acacad"/><path d="m115.55 352.65a44.27 44.27 0 0 0 7.31-.93 22.43 22.43 0 0 0 1.62 2s-1.79 1.38-9.2 1.63z" fill="#acacad"/><path d="m128.61 335.37c-1.2-4.62-2.38-9.26-3.5-13.9-1.45-6-2.79-12.1-4-18.2-1-5.28-1.61-11-4.57-15.57s-8-7.54-12.93-9.59a137.31 137.31 0 0 0 -17.39-5.77l-.94-.25a23.26 23.26 0 0 1 -3.17-1.39 51.41 51.41 0 0 1 -5.22-1.08 48.44 48.44 0 0 1 -13.49 9.56 104.24 104.24 0 0 1 -41 10.27q.13.49.3 1a29.17 29.17 0 0 0 9.4 14.19c5 3.93 11.06 6.28 17.26 7.86s12.57 2.44 18.84 3.7a16.05 16.05 0 0 1 4.7 1.56 9.24 9.24 0 0 1 1.18.85c1 .82 1.89 1.95.78 2.43l-.36.14v.53c.09 5.2-1.73 10.15-3.29 15 .7 6.19 1.55 13.18 2.4 20a53.54 53.54 0 0 0 7.1 2.62 47.27 47.27 0 0 0 9.42 1.76 57.5 57.5 0 0 0 7.07.12 65.46 65.46 0 0 0 8.49-1c2.09-.37 4.16-.83 6.21-1.36a5.93 5.93 0 0 0 3-1.45c1.1-1.22 1-3 .8-4.58a42 42 0 0 0 4.33-.54c.92-.17 2-.36 3-.63 2.74-.68 5.62-1.81 7.07-4.07 2.37-3.5-.56-8.66-1.49-12.21z" fill="#bd6b4e"/><path d="m116.05 352.82a.36.36 0 0 1 -.35-.3c0-.28-.1-.57-.16-.83-.13-.68-.27-1.34-.42-2-1.47-6.68-2.87-14-4.3-22.41-.35-2-.66-4-1-6a143.22 143.22 0 0 0 -3-15.79 23.42 23.42 0 0 0 -2.8-6.64c-3-4.8-9.11-9.34-16.21-12.13-3.12-1.22-6.45-2.36-10.18-3.46a.35.35 0 0 1 -.24-.44.35.35 0 0 1 .44-.24c3.75 1.11 7.1 2.25 10.24 3.48 7.23 2.84 13.42 7.48 16.55 12.41a24.48 24.48 0 0 1 2.89 6.83 146 146 0 0 1 3.06 15.87c.31 2 .62 4 1 6 1.42 8.39 2.83 15.71 4.29 22.38q.22 1 .42 2c.06.27.12.57.17.86a.35.35 0 0 1 -.29.41z" fill="#995642"/><path d="m105.62 364.33a.71.71 0 0 1 -.48-1.23 6.62 6.62 0 0 1 3.48-1.66.7.7 0 0 1 .8.6.71.71 0 0 1 -.6.81 5.13 5.13 0 0 0 -2.72 1.3.74.74 0 0 1 -.48.18z" fill="#939598"/><path d="m107.79 367a.71.71 0 0 1 -.47-1.25 9 9 0 0 1 2.84-1.65.71.71 0 0 1 .91.43.7.7 0 0 1 -.43.9 7.67 7.67 0 0 0 -2.39 1.4.73.73 0 0 1 -.46.17z" fill="#939598"/><path d="m120.8 356a.74.74 0 0 1 -.56-.27.71.71 0 0 1 .12-1 7.07 7.07 0 0 1 3.43-1.46.71.71 0 0 1 .19 1.41 5.73 5.73 0 0 0 -2.74 1.16.68.68 0 0 1 -.44.16z" fill="#939598"/><path d="m123.46 358.59a.69.69 0 0 1 -.59-.32.7.7 0 0 1 .2-1 10.5 10.5 0 0 1 2.77-1.31.71.71 0 0 1 .41 1.36 9.25 9.25 0 0 0 -2.4 1.13.71.71 0 0 1 -.39.14z" fill="#939598"/><path d="m479.58 214.53a5.4 5.4 0 0 0 -.94-2.77c-1-1.37-.41-3.71-.05-5.22a30.68 30.68 0 0 0 .75-3.45 7.38 7.38 0 0 0 0-2.15c-.32-2.17-1.79-4-2.28-6.16a10.16 10.16 0 0 1 -.22-2.27 22.23 22.23 0 0 0 -.15-5.53 11.13 11.13 0 0 0 -1.54-3.27c-.69-1.07-1.47-2.09-2.13-3.18a21.43 21.43 0 0 1 -2.64-9.09c-.29-2.76-.38-5.59-.79-8.32l-.09-.51a22.53 22.53 0 0 0 -.77-3.27 23.65 23.65 0 0 0 -15.31-15.83 22.12 22.12 0 0 0 -11.59-.23 21.75 21.75 0 0 0 -9.85 5.36 21.13 21.13 0 0 0 -6.45 17.21c.36 2.95 1.92 5.67 1.8 8.69-.12 3.18-2.55 5.88-2.9 9v.34a24.57 24.57 0 0 0 .72 5.65 11.37 11.37 0 0 1 .18 2.73 9.79 9.79 0 0 1 -.85 2.95 8.62 8.62 0 0 0 -.82 2.61 1 1 0 0 0 1 1.23h.22l.83-.43v.16a2.4 2.4 0 0 1 .91-.23 3.63 3.63 0 0 1 2.9 2.35c.81 2.12.15 5 0 7.19-.42 5-1.58 9.79.15 14.7 1.25 3.57 4.1 7.07 8.23 5.23 2.19-1 3.35-3.67 5.66-4.33s4.49 1 6.26 2.51 3.85 3.25 6.16 2.86 3.63-2.5 4.71-4.46 2.32-4.15 4.46-4.8c3.51-1.05 7.07 2.64 10.62 1.77 2.77-.75 4.16-4.15 3.81-7.04z" fill="#ca5b46"/><path d="m519.18 234.58a2.35 2.35 0 0 0 0 .28v.33a.75.75 0 0 1 0 .21.47.47 0 0 0 0 .17v.58 1.17c0 .78-.08 1.55-.14 2.33 0 .25-.05.5-.07.75a.68.68 0 0 1 -.21-.1l-.15-.13-.36-.31a8.28 8.28 0 0 1 -.64-.68 8 8 0 0 1 -1.67-3.29c0-.08 0-.15-.05-.22 1.04-.33 2.17-.67 3.29-1.09z" fill="#50627c"/><path d="m509.22 208.22s10.64 14.49 9.95 26.64l-3.37.81s3-6.71-7.34-27.11z" fill="#aa8d7d"/><path d="m533.26 349.56.55 2.74s-23.67 5.1-38.26-1.28l1-1.45a79.12 79.12 0 0 0 36.71-.01z" fill="#414042"/><path d="m487.67 341.09.32 2.16s-15 1.84-29.47-2.16l1.24-1.63a110.57 110.57 0 0 0 27.91 1.63z" fill="#414042"/><path d="m476.44 383.56c-1.57-7-3.46-13.92-4.95-20.94-.41-1.92-.81-3.84-1.22-5.76-.89-4.3-1.78-8.61-2.71-12.91l-.75-3.45q-1-4.72-2-9.45l-.06-.28c-.44-2.09-1-4.49-1.29-6.6l-6.46 1.63c.12.53.3 1.54.52 2.41.64 2.61 1.67 6.64 2.89 11.37 1.45 5.58 3.16 12.16 4.85 18.56 3.72 14.12 7.28 27.42 7.44 27.54a3.88 3.88 0 0 0 2.56.51 2.23 2.23 0 0 0 1.35-1c.3-.51-.03-1.03-.17-1.63z" fill="#f7c45a"/><path d="m552.9 185a47.74 47.74 0 0 0 -4.16-8.38c-9.45-15.63-22.4-28.79-35.25-41.78a5 5 0 0 1 -3.15-3.11 16.3 16.3 0 0 1 -.47-2.43l-.93.15a22.54 22.54 0 0 1 -6.75 4.21 21.76 21.76 0 0 1 -6.52 1.38 20.78 20.78 0 0 1 -6.61-.71c-.53-.15-1.06-.33-1.58-.52a8 8 0 0 1 -1-.3 22.73 22.73 0 0 1 -2.93-1.63s-9.75 11.67-14.09 30.71l.09.51c.41 2.73.5 5.56.79 8.32a21.43 21.43 0 0 0 2.64 9.09c.66 1.09 1.44 2.11 2.13 3.18a11.13 11.13 0 0 1 1.54 3.27 22.23 22.23 0 0 1 .15 5.53h1.15l14.2-3.83a3.85 3.85 0 0 1 4.68 2.54l6.11 19 .85-.2a53.61 53.61 0 0 0 5.43-1.74c.59.85 1.12 1.74 1.64 2.62 1.63 2.79 3 5.71 4.47 8.59 2.25 4.45 3.92 9.18 3.82 14.23v.88a14.27 14.27 0 0 1 -.34 3.15 7.74 7.74 0 0 0 -.36 1 2.31 2.31 0 0 0 .38 1.62h-.06a8 8 0 0 1 -3-4.72 37.19 37.19 0 0 1 -4.29 1l1.43 4.42.57 1.76c4.37 0 9.91.25 17.91-3.32-.19-1.48-.58-4.36-.74-5.61-.6.55 0-.14 0 0a88.33 88.33 0 0 0 6.84-7c7.05-8 14.11-16.75 16.4-27.46a26.2 26.2 0 0 0 -.99-14.42z" fill="#6d87b5"/><path d="m505.89 209.37a7.13 7.13 0 0 0 0-.8c0-.2-.06-.4-.06-.61a13.28 13.28 0 0 1 .1-2.36c.06-.39.12-.77.21-1.16 0-.19.09-.38.14-.57a3.54 3.54 0 0 0 .16-.54 22 22 0 0 1 1.55 1.92 8.45 8.45 0 0 1 1 1.77 6.5 6.5 0 0 1 .29 1v.18a.1.1 0 0 1 0 0 2.39 2.39 0 0 1 -.57.19c-.99.32-1.9.61-2.82.98z" fill="#50627c"/><path d="m506.54 204.13h-.05a.35.35 0 0 1 -.3-.4c.29-2 2.16-2.47 3.66-2.87.38-.11.75-.21 1.09-.32.86-.31 1.7-.66 2.52-1a28.82 28.82 0 0 0 4.68-2.8 27.59 27.59 0 0 0 6.63-7 .36.36 0 0 1 .49-.11.35.35 0 0 1 .1.49 28 28 0 0 1 -6.8 7.2 29.15 29.15 0 0 1 -4.8 2.87c-.84.39-1.7.75-2.58 1.06-.36.13-.75.23-1.15.34-1.43.39-2.92.78-3.14 2.29a.35.35 0 0 1 -.35.25z" fill="#50627c"/><path d="m519.23 240.6h-.05a.36.36 0 0 1 -.35-.36.37.37 0 0 1 .35-.35 13.88 13.88 0 0 0 5.13-1.06 9.14 9.14 0 0 0 1.63-1.07c.15-.12.3-.24.46-.35.7-.53 1.39-1.11 1.92-1.56a.42.42 0 0 1 .12-.1c.58-.51 1.2-1.05 1.8-1.6a.35.35 0 0 1 .48.52c-.61.56-1.23 1.1-1.85 1.64l-.09.08c-.54.46-1.24 1.05-2 1.59l-.45.34a9.11 9.11 0 0 1 -1.77 1.15 14.67 14.67 0 0 1 -5.33 1.13z" fill="#50627c"/><path d="m475 105.43h-.05c.19-.48.34-1 .51-1.45a16.8 16.8 0 0 1 2.74-4.98c.58-.7 1.31-1.28 1.85-2a4.6 4.6 0 0 1 2.22-1.23l.55-.18a12.75 12.75 0 0 1 7.19 0 7.88 7.88 0 0 1 2.86 1.32c.74.58 1.45 1.2 2.13 1.85a27.53 27.53 0 0 1 5.5 7.49c.94 1.87 2.06 4.15 4.13 4.27 1.45.09 3-1 4.26-.35a2.49 2.49 0 0 1 1.2 2.34 5.67 5.67 0 0 1 -.43 1.84c-.11.27-.22.55-.34.82a2.9 2.9 0 0 1 -.27.62c-.14.31-.27.63-.41 1-.48 1.11-.94 2.18-1.44 3.27a11.41 11.41 0 0 0 -.81 2.32 5.19 5.19 0 0 0 .66 4c.61.85 1.56 1.42 2.1 2.31a5 5 0 0 1 .6 2l-.93.12a22.62 22.62 0 0 1 -6.89 4 21.81 21.81 0 0 1 -6.56 1.16 20.7 20.7 0 0 1 -6.58-.93c-.53-.16-1.05-.36-1.56-.57a7.46 7.46 0 0 1 -.94-.33 22.12 22.12 0 0 1 -2.88-1.72l-.63-.46a22.87 22.87 0 0 1 -7.78-26.53z" fill="#c5a28a"/><path d="m427.11 330s5.47.11 6.25 0l-.39 2.51s-1.71.56-6.12-.24z" fill="#e0ad53"/><path d="m406.89 325.21a29.36 29.36 0 0 0 6 2.45l-.73 2.31s-3 .21-5.64-3.2z" fill="#e0ad53"/><path d="m484.61 262.07a40.57 40.57 0 0 0 -1.09-6.32c-1.28-4.93-3.73-9.71-7.69-12.91a19.05 19.05 0 0 0 -8.83-3.84c-6.57-1.11-14.85 1.1-20.39 4.71a26.5 26.5 0 0 0 -7.61 7.69c-3.82 5.9-5.52 12.91-6.47 19.87-.5 3.69-.81 7.4-1.18 11.1-.23 2.28-.48 4.56-.82 6.83-.67 4.62-1.59 9.48-3.71 13.7a20.53 20.53 0 0 1 -6.8 7.94 18.71 18.71 0 0 1 -6.93 3c-3.85.8-9.22-1-12.67 1.31a3.12 3.12 0 0 0 -1.29 2 3.05 3.05 0 0 0 -.06.6 2.58 2.58 0 0 0 .27 1.09 1.87 1.87 0 0 0 .15.32 5.87 5.87 0 0 0 .85 1.17 22.33 22.33 0 0 0 1.71 1.66 24.94 24.94 0 0 0 4.8 3.24 35.17 35.17 0 0 0 6 2.45 58.23 58.23 0 0 0 16.85 2.4h2.71.95c1.88-.09 3.74-.27 5.6-.5a170.58 170.58 0 0 0 19-3.81l1.65-.4c3.87-1 7.72-2.13 10.89-4.5a22.64 22.64 0 0 0 7.27-10.45 40.34 40.34 0 0 0 1.34-4.47c.65-2.66 1.09-5.38 1.53-8.1q1.05-6.47 2.09-12.95c1.27-7.63 2.57-15.26 1.88-22.83z" fill="#dcdbdc"/><path d="m457 325.91a58.1 58.1 0 0 0 6.45-1.74l.37 2.11s-1.13 1.13-6.51 1z" fill="#e0ad53"/><path d="m63.27 322.08 6.54-.39.19 2.31s-4.93 1.17-6.44 0z" fill="#e0ad53"/><path d="m34.45 319.9a34.58 34.58 0 0 0 5.95 1.39l-.31 1.63s-1.43.91-6-.35z" fill="#e0ad53"/><path d="m24.23 315.24a28.26 28.26 0 0 0 6.21 3.27l-.67 2.15s-2.53.41-6.44-1.75z" fill="#e0ad53"/><path d="m156.16 265.24h9v5.81a23.55 23.55 0 0 0 -9-1.69z" fill="#a7c8d6"/><path d="m243.12 105-.06.06.94.12a.57.57 0 0 0 -.15-.16.43.43 0 0 0 -.21-.11.39.39 0 0 0 -.24 0 .44.44 0 0 0 -.22.07l-.18.02a.63.63 0 0 0 -.16.27v.16a.61.61 0 0 0 .08.3.53.53 0 0 0 .21.21.39.39 0 0 0 .23.07.39.39 0 0 0 .24 0 .61.61 0 0 0 .26-.15l.06-.06a.44.44 0 0 0 .12-.19.4.4 0 0 0 0-.24.37.37 0 0 0 0-.23.39.39 0 0 0 -.04-.14l-.12-.09a.59.59 0 0 0 -.31-.09h-.16a.53.53 0 0 0 -.26.15z" fill="#76503d"/><path d="m235.8 108.35-.07.09a.44.44 0 0 0 -.07.22.39.39 0 0 0 0 .24.43.43 0 0 0 .11.21.46.46 0 0 0 .16.15l.15.06a.58.58 0 0 0 .32 0l.14-.06a.5.5 0 0 0 .21-.22l.07-.09a.36.36 0 0 0 .07-.22.39.39 0 0 0 0-.24.42.42 0 0 0 -.1-.2.52.52 0 0 0 -.17-.16l-.15-.06a.58.58 0 0 0 -.32 0l-.14.06a.56.56 0 0 0 -.21.22z" fill="#76503d"/><path d="m242.11 119a.34.34 0 0 1 -.31-.21.85.85 0 0 1 .32-1 1.77 1.77 0 0 1 .75-.31l1-.25c.06 0 .23-.06.26-.11s0-.15-.06-.33c-1.34-3.82-2.41-6.73-3.46-9.45a.31.31 0 0 1 .18-.42.33.33 0 0 1 .43.19c1 2.72 2.12 5.64 3.47 9.47a1 1 0 0 1 0 .89 1.06 1.06 0 0 1 -.67.39l-1 .25a1.49 1.49 0 0 0 -.5.19c-.08.07-.13.18-.11.23a.31.31 0 0 1 -.18.42.25.25 0 0 1 -.12.05z" fill="#8e6c55"/><path d="m244.29 102.74a.33.33 0 0 1 -.27-.14 2 2 0 0 0 -2.12-.78.33.33 0 1 1 -.19-.63 2.64 2.64 0 0 1 2.85 1 .32.32 0 0 1 -.08.45.33.33 0 0 1 -.19.1z" fill="#b1b1b1"/><path d="m233.09 107.49h-.09a.33.33 0 0 1 -.28-.37v-.12a3 3 0 0 1 1.78-2.75.32.32 0 0 1 .42.18.33.33 0 0 1 -.18.43c-1.09.43-1.23 1.31-1.37 2.24v.12a.32.32 0 0 1 -.28.27z" fill="#b1b1b1"/><path d="m224.28 120.2a.21.21 0 0 1 -.12 0c-.11-.13-.23-.25-.35-.38a4.65 4.65 0 0 1 -.86-1.08 1.07 1.07 0 0 1 .21-1.32 1.53 1.53 0 0 1 1.31-.09.15.15 0 0 1 .11.19.15.15 0 0 1 -.19.11 1.24 1.24 0 0 0 -1 0 .78.78 0 0 0 -.12.93 4.39 4.39 0 0 0 .81 1c.12.13.25.26.36.39a.16.16 0 0 1 0 .22.15.15 0 0 1 -.16.03z" fill="#8e6c55"/><path d="m238.41 126.35a.35.35 0 0 1 -.14 0 2.53 2.53 0 0 1 -1.5-1.89 1.88 1.88 0 0 1 1.29-2.07 2.26 2.26 0 0 1 1.76.38 8.32 8.32 0 0 1 .79.62 5.58 5.58 0 0 0 .46.39 5.09 5.09 0 0 0 3.17 1 .31.31 0 0 1 .33.32.33.33 0 0 1 -.32.34 5.83 5.83 0 0 1 -3.58-1.16c-.17-.13-.33-.27-.49-.41a6.09 6.09 0 0 0 -.72-.56 1.61 1.61 0 0 0 -1.24-.3 1.23 1.23 0 0 0 -.8 1.34 1.93 1.93 0 0 0 1.13 1.39.33.33 0 0 1 .16.43.34.34 0 0 1 -.3.18z" fill="#8e6c55"/><path d="m58.85 185.87a.31.31 0 0 1 -.13 0 2.56 2.56 0 0 1 -1.51-1.87 1.89 1.89 0 0 1 1.29-2.07 2.22 2.22 0 0 1 1.76.38 7.22 7.22 0 0 1 .79.62c.15.13.31.27.47.39a5 5 0 0 0 3.16 1 .33.33 0 0 1 .34.32.34.34 0 0 1 -.32.34 5.83 5.83 0 0 1 -3.58-1.16l-.5-.41a6.11 6.11 0 0 0 -.71-.57 1.72 1.72 0 0 0 -1.24-.3 1.25 1.25 0 0 0 -.81 1.35 1.91 1.91 0 0 0 1.14 1.35.33.33 0 0 1 .16.44.32.32 0 0 1 -.31.19z" fill="#ad8a79"/><path d="m477.76 107.59h.06a.59.59 0 0 0 .31.09.49.49 0 0 0 .23-.06.44.44 0 0 0 .19-.12.61.61 0 0 0 .15-.26v-.05a.49.49 0 0 0 0-.24.48.48 0 0 0 -.07-.23.41.41 0 0 0 -.16-.16.36.36 0 0 0 -.2-.11h-.16a.52.52 0 0 0 -.3.08l-.12.09a.63.63 0 0 0 -.16.27l.88-.36h-.07a.36.36 0 0 0 -.22-.07.39.39 0 0 0 -.24 0 .36.36 0 0 0 -.2.11.41.41 0 0 0 -.16.16l-.06.15a.58.58 0 0 0 0 .32l.06.14a.56.56 0 0 0 .22.21z" fill="#76503d"/><path d="m485.3 109.48.08.08a.39.39 0 0 0 .19.12.47.47 0 0 0 .46 0 .35.35 0 0 0 .19-.12l.1-.12a.61.61 0 0 0 .08-.3v-.16a.63.63 0 0 0 -.16-.27l-.08-.08a.39.39 0 0 0 -.19-.12.55.55 0 0 0 -.46 0 .35.35 0 0 0 -.19.12l-.1.12a.68.68 0 0 0 -.08.31v.15a.57.57 0 0 0 .16.27z" fill="#76503d"/><path d="m481.06 120.48h-.06a4.84 4.84 0 0 0 -.76 0 7.52 7.52 0 0 1 -.82 0 1.88 1.88 0 0 1 -1.55-1 2.37 2.37 0 0 1 0-1.66l.5-1.93c.7-2.65 1.49-5.66 2-8.17a.32.32 0 0 1 .38-.25.33.33 0 0 1 .26.39c-.52 2.52-1.31 5.54-2 8.19l-.51 1.94a1.89 1.89 0 0 0 0 1.21 1.29 1.29 0 0 0 1 .6 4.47 4.47 0 0 0 .73 0 6.06 6.06 0 0 1 .85 0 .33.33 0 0 1 0 .65z" fill="#8e6c55"/><path d="m69.06 167.42-.07.05.88.35a.56.56 0 0 0 -.11-.2.35.35 0 0 0 -.17-.15.45.45 0 0 0 -.22-.08.65.65 0 0 0 -.24 0l-.14.07a.56.56 0 0 0 -.22.21l-.06.14a.58.58 0 0 0 0 .32.57.57 0 0 0 .16.27.35.35 0 0 0 .19.12.37.37 0 0 0 .23.05.52.52 0 0 0 .3-.08h.07a.44.44 0 0 0 .17-.16.51.51 0 0 0 .12-.44.52.52 0 0 0 -.07-.22l-.1-.13a.61.61 0 0 0 -.26-.15h-.16a.61.61 0 0 0 -.3.08z" fill="#7f5847"/><path d="m61.16 169-.09.07a.44.44 0 0 0 -.12.19.4.4 0 0 0 -.05.24.37.37 0 0 0 .05.23.39.39 0 0 0 .12.19l.12.09a.69.69 0 0 0 .31.09h.16a.57.57 0 0 0 .26-.15l.09-.08a.41.41 0 0 0 .12-.19.55.55 0 0 0 0-.46.41.41 0 0 0 -.13-.22l-.12-.1a.68.68 0 0 0 -.31-.08h-.16a.54.54 0 0 0 -.26.16z" fill="#7f5847"/><path d="m64.4 180.3a.32.32 0 0 1 -.3-.34.77.77 0 0 1 .51-.66 1.76 1.76 0 0 1 .62-.08h1.69a.55.55 0 0 0 .51-.27.42.42 0 0 0 .06-.34c-.48-3.32-1.1-6.65-1.69-9.75a.35.35 0 0 1 .26-.39.34.34 0 0 1 .39.26c.59 3.11 1.21 6.45 1.69 9.79a1.1 1.1 0 0 1 -.16.8 1.22 1.22 0 0 1 -1.13.55h-1.65a1.11 1.11 0 0 0 -.38 0 .23.23 0 0 0 -.1.08.33.33 0 0 1 -.32.35z" fill="#ad8a79"/><path d="m70.92 165.78a.32.32 0 0 1 -.28-.15 2 2 0 0 0 -2.1-.84.32.32 0 0 1 -.4-.22.33.33 0 0 1 .23-.41 2.65 2.65 0 0 1 2.82 1.12.33.33 0 0 1 -.1.45.34.34 0 0 1 -.17.05z" fill="#f7c45a"/><path d="m58.92 168.09a.26.26 0 0 1 -.17-.05.32.32 0 0 1 -.1-.45l.06-.1a3 3 0 0 1 2.72-1.82.33.33 0 0 1 .32.34c0 .18-.16.28-.34.31-1.19 0-1.65.72-2.15 1.52l-.06.1a.32.32 0 0 1 -.28.15z" fill="#f7c45a"/><path d="m46.81 174.54a.15.15 0 0 1 -.16-.12l-.39-1.61a1.86 1.86 0 0 1 0-1.05 1.28 1.28 0 0 1 1-.76 3.17 3.17 0 0 1 1.19.08.17.17 0 0 1 .13.19.18.18 0 0 1 -.19.12 2.8 2.8 0 0 0 -1.07-.08 1 1 0 0 0 -.75.56 1.51 1.51 0 0 0 0 .86l.39 1.62a.16.16 0 0 1 -.12.19z" fill="#ad8a79"/><path d="m507.32 115.05a.16.16 0 0 1 -.13-.18 3.73 3.73 0 0 1 .44-1.18 3.22 3.22 0 0 0 .41-1.12 1 1 0 0 0 -.34-.95.63.63 0 0 0 -.52-.1.45.45 0 0 0 -.31.23.16.16 0 0 1 -.21.07.17.17 0 0 1 -.08-.21.79.79 0 0 1 .52-.4 1 1 0 0 1 .78.15 1.37 1.37 0 0 1 .48 1.25 3.94 3.94 0 0 1 -.44 1.21 3.41 3.41 0 0 0 -.42 1.09.16.16 0 0 1 -.18.14z" fill="#8e6c55"/><path d="m487.21 128.48a.3.3 0 0 1 -.25-.13.32.32 0 0 1 .05-.46 2.06 2.06 0 0 0 .84-1.68 1.27 1.27 0 0 0 -1.12-1.18 2.43 2.43 0 0 0 -1.37.65 5.23 5.23 0 0 1 -.55.41 8.29 8.29 0 0 1 -1.38.73 8.52 8.52 0 0 1 -3 .65.38.38 0 0 1 -.37-.32.31.31 0 0 1 .28-.34 8 8 0 0 0 2.82-.6 7.7 7.7 0 0 0 1.27-.67 5.86 5.86 0 0 0 .5-.37 2.94 2.94 0 0 1 1.79-.8 1.9 1.9 0 0 1 1.76 1.79 2.71 2.71 0 0 1 -1.08 2.25.38.38 0 0 1 -.19.07z" fill="#8e6c55"/><path d="m488.87 105.83a.32.32 0 0 1 -.3-.21 2 2 0 0 0 -2.2-1.16.34.34 0 0 1 -.39-.25.32.32 0 0 1 .25-.39 2.64 2.64 0 0 1 2.95 1.56.33.33 0 0 1 -.19.43z" fill="#2a170d"/><path d="m477.19 103.61a.33.33 0 0 1 -.24-.1.33.33 0 0 1 0-.46 3.11 3.11 0 0 1 3.07-.69.33.33 0 0 1 .2.42.32.32 0 0 1 -.41.2 2.45 2.45 0 0 0 -2.4.54.35.35 0 0 1 -.22.09z" fill="#2a170d"/><path d="m513.19 136.34a5 5 0 0 1 -3.05-3.21 17.54 17.54 0 0 1 -.39-2.46 5 5 0 0 0 -.6-2c-.54-.89-1.49-1.46-2.1-2.31a5.19 5.19 0 0 1 -.66-4 11.41 11.41 0 0 1 .81-2.32c.5-1.09 1-2.16 1.44-3.27.14-.32.27-.64.41-1a2.9 2.9 0 0 0 .27-.62c.12-.27.23-.55.34-.82a5.67 5.67 0 0 0 .43-1.84 2.49 2.49 0 0 0 -1.2-2.34c-1.29-.65-2.81.44-4.26.35-2.07-.12-3.19-2.4-4.13-4.27-.14-.27-.27-.57-.42-.83a4.86 4.86 0 0 0 -.56-.71 30.42 30.42 0 0 0 -6-5.69 14.44 14.44 0 0 0 -8.61-2.74 10.28 10.28 0 0 0 -3 .57 9.6 9.6 0 0 0 -3.1 1.78 9.32 9.32 0 0 0 -1.21 1.3 6 6 0 0 1 -.5.63 4.57 4.57 0 0 0 -.69 1.09 17.77 17.77 0 0 0 -1 2.28 11.24 11.24 0 0 1 -.54 1.44c-.25.51-.3 1.07-.5 1.58s-.13.89-.49 1.23a2 2 0 0 1 -2 .2 3.57 3.57 0 0 1 -1.65-1.19 3.51 3.51 0 0 1 -.5-.91 2.39 2.39 0 0 1 -.12-.46c-.08-.43-.26-.86-.38-1.28a7.3 7.3 0 0 0 -.5-1.35c-.68-1.3-1.95-2.2-2.7-3.47a6.73 6.73 0 0 1 -.49-5 14.2 14.2 0 0 1 1.46-3.35 3.18 3.18 0 0 1 .78-1.13 17.91 17.91 0 0 1 1.88-1.29c1.72-1 3.76-1.45 5.26-2.75 2.1-1.82 2.72-4.93 4.71-6.86 2.62-2.52 6.8-2.31 10.26-1.26s6.8 2.8 10.41 2.83a40.84 40.84 0 0 0 6.63-1 9.57 9.57 0 0 1 6.51.79c3.83 2.34 4 8 6.93 11.4a24.69 24.69 0 0 0 4.77 3.58c1.64 1.13 3.23 2.6 3.7 4.55.82 3.4-2 6.78-1.52 10.24.27 2.21 1.83 4.13 2 6.34a6.73 6.73 0 0 1 -1.86 4.69 12.11 12.11 0 0 1 -1.75 1.61 19.2 19.2 0 0 0 -1.63 1.22 2.24 2.24 0 0 0 -.53 1.08c-.06.25-.12.51-.19.78-.81 3-1.63 8.38-5.17 9.47-.7.2-1.33.59-2 .79a4.85 4.85 0 0 1 -2.48 0 3.45 3.45 0 0 1 -.52-.09z" fill="#2a170d"/><path d="m283.86 201.07c-2.19-4-7.45-13.37-7.91-25.52l4.56-2.23s-5.56 7 4.79 27.41c0 0-1.3.58-1.44.34z" fill="#b79984"/></svg>