<svg width="103" height="103" viewBox="0 0 103 103" fill="none" xmlns="http://www.w3.org/2000/svg">
<path fill="black" d="M43.1142 87.2131C42.1582 87.9363 41.1341 88.5782 40.0551 89.1249C38.9729 89.6642 37.8374 90.1084 36.6656 90.4478C34.3191 91.1145 31.8312 91.3565 29.3611 91.1293C26.891 90.9075 24.4406 90.2188 22.1832 89.0931C19.925 87.97 17.8593 86.4148 16.1366 84.5175C14.4114 82.6233 13.0253 80.3903 12.0904 77.9573C11.155 75.5255 10.6659 72.8982 10.6761 70.2574C10.6844 67.6147 11.1836 64.9452 12.1676 62.4424C13.1485 59.9385 14.6075 57.6039 16.4543 55.5972L16.4762 55.5734C17.4821 54.4804 19.1835 54.4098 20.2764 55.4156C21.3693 56.4215 21.44 58.1229 20.4341 59.2158C20.3769 59.278 20.3141 59.3397 20.2526 59.3952C18.7132 60.7781 17.4172 62.4612 16.4669 64.3411C15.5145 66.2202 14.9115 68.2945 14.7006 70.437C14.5912 71.509 14.5927 72.5958 14.6864 73.676C14.7815 74.7567 14.9768 75.8329 15.2722 76.8868C15.8617 78.9948 16.8564 81.012 18.1989 82.7972C19.5385 84.5846 21.2291 86.1342 23.1612 87.3322C25.092 88.5323 27.2654 89.377 29.5417 89.7986C31.8176 90.2256 34.1943 90.2242 36.5105 89.7946C37.6676 89.5737 38.8096 89.2469 39.9184 88.8184C41.0239 88.3823 42.0946 87.8443 43.1142 87.2131Z"/>
<path fill="black" d="M58.1501 17.1209C58.8193 16.4855 59.529 15.8866 60.2812 15.3366C61.0399 14.7969 61.836 14.3034 62.6659 13.8623C63.5009 13.4325 64.3676 13.0566 65.2597 12.7372C66.1535 12.4231 67.0741 12.1782 68.0099 11.9876L68.7152 11.8584C68.9516 11.8232 69.189 11.7927 69.4266 11.7598C69.664 11.7228 69.9031 11.7073 70.1423 11.6844L70.5015 11.6522C70.6214 11.6398 70.7415 11.6394 70.8616 11.6324C71.8232 11.5735 72.7918 11.6004 73.7585 11.6844L74.1213 11.7182L74.303 11.7353L74.4834 11.7602L75.207 11.8612C75.6856 11.9495 76.1687 12.03 76.6429 12.1505C76.8812 12.2064 77.1208 12.2599 77.3553 12.331C77.5908 12.399 77.8283 12.4629 78.0632 12.5354L78.7629 12.7701C78.8212 12.7901 78.8801 12.8087 78.9379 12.8299L79.1102 12.8966L79.455 13.0305L79.8004 13.1652C79.9142 13.2131 80.0265 13.2645 80.1397 13.3142L80.479 13.4649C80.5917 13.5162 80.7068 13.5631 80.8163 13.6207L81.4814 13.9547C81.5937 14.0086 81.7004 14.0717 81.809 14.1321L82.134 14.3151L82.4593 14.4989L82.7758 14.6972L83.0925 14.8963C83.1977 14.9635 83.3055 15.0273 83.4064 15.1005L84.0214 15.5293C84.1254 15.5994 84.2236 15.6765 84.3226 15.7529L84.62 15.9822L84.9176 16.2124C85.0156 16.2907 85.1092 16.3737 85.2053 16.4543C85.3956 16.6175 85.589 16.7782 85.777 16.9451L86.3268 17.462L86.4642 17.5918C86.5107 17.6345 86.5557 17.6786 86.5987 17.7247L86.861 17.9973L87.1234 18.2709C87.2109 18.3623 87.2995 18.4528 87.3807 18.5497L87.8787 19.1241C87.9199 19.1724 87.9623 19.2198 88.0025 19.2688L88.12 19.4184L88.355 19.7185C88.5114 19.919 88.6713 20.1178 88.8141 20.3285L89.2544 20.9547L89.6651 21.6019C89.7322 21.7108 89.8042 21.8173 89.8671 21.9286L90.0564 22.2629L90.2453 22.5981L90.3396 22.7661C90.3711 22.8222 90.3981 22.8803 90.4275 22.9373L90.7728 23.627C90.8326 23.7414 90.8816 23.8601 90.9343 23.9776L91.0903 24.3311L91.2459 24.6856C91.2942 24.8052 91.3393 24.9259 91.386 25.0463C91.4771 25.2877 91.5745 25.5278 91.6595 25.772C92.0008 26.7492 92.2692 27.7538 92.4802 28.7748C92.6774 29.798 92.8052 30.8374 92.8695 31.8857C92.9605 33.369 91.8318 34.6452 90.3486 34.7361C88.8653 34.8271 87.5891 33.6984 87.4982 32.2152C87.4917 32.1107 87.4914 32.0072 87.4968 31.905L87.4981 31.8859C87.5457 31.0909 87.5478 30.289 87.495 29.4857C87.4284 28.6847 87.3189 27.8824 87.1477 27.0884C87.1052 26.89 87.051 26.6946 87.0037 26.4965C86.9789 26.3979 86.9559 26.2985 86.9298 26.2L86.8413 25.9079L86.7533 25.6148C86.7234 25.5172 86.6973 25.4179 86.6606 25.3228L86.4551 24.7447C86.4374 24.6966 86.4222 24.6473 86.4026 24.6001L86.3438 24.4583L86.2264 24.174L86.1093 23.8887C86.0705 23.7934 86.0227 23.7026 85.9799 23.609L85.7157 23.0499L85.4234 22.5039C85.3301 22.3185 85.2199 22.1437 85.1132 21.9659L84.953 21.6989L84.8729 21.565C84.8451 21.5211 84.8152 21.4788 84.7864 21.4355L84.4379 20.917C84.3818 20.8288 84.3179 20.7465 84.2552 20.6631L84.0673 20.4123L83.8794 20.1606C83.8488 20.1179 83.8161 20.077 83.782 20.0374L83.6814 19.9167L83.2787 19.4318C83.1395 19.2743 82.9947 19.1218 82.8529 18.9657C82.7811 18.8886 82.7115 18.8087 82.6377 18.7335L82.4126 18.5115L82.1872 18.2887C82.1122 18.2142 82.0378 18.1386 81.9576 18.0699L81.4848 17.6458C81.4074 17.5728 81.3231 17.509 81.2413 17.4416L80.9944 17.2407L80.7471 17.0391L80.4903 16.8503L80.2332 16.6607C80.1471 16.5978 80.0627 16.532 79.9727 16.4751L79.4395 16.1201C79.3517 16.0585 79.258 16.0073 79.1668 15.9515L78.8912 15.7864C78.7991 15.7317 78.7077 15.675 78.6147 15.6216L78.3311 15.4697L78.047 15.3171L77.9048 15.2406C77.8569 15.216 77.8079 15.194 77.7595 15.1705L77.1759 14.8917C76.979 14.8036 76.7787 14.7232 76.5796 14.638C76.3816 14.5496 76.1775 14.478 75.9739 14.4032C75.5692 14.245 75.1523 14.1237 74.7363 13.9919L74.1039 13.8237L73.9454 13.7814L73.7853 13.7468L73.4647 13.6771C72.6086 13.4963 71.7355 13.3635 70.8536 13.3109C70.7434 13.3039 70.6331 13.2903 70.5227 13.2886L70.1911 13.2783C69.9699 13.2726 69.7477 13.2593 69.5262 13.2672C69.3046 13.271 69.0821 13.2722 68.8596 13.2778L68.1931 13.3178C67.3049 13.389 66.4157 13.512 65.5371 13.7054C64.6602 13.9039 63.7926 14.1602 62.941 14.4747C62.0945 14.8006 61.2662 15.1833 60.4612 15.62C59.6625 16.0669 58.8921 16.5705 58.1501 17.1209Z"/>
<path fill="black" d="M9.98041 31.8862C10.0926 28.9989 10.7734 26.1442 11.9715 23.5538C13.1659 20.9612 14.8677 18.634 16.9296 16.7303C18.9918 14.8265 21.414 13.3459 24.0103 12.3924C26.6055 11.435 29.3712 11.0126 32.0854 11.124C34.8004 11.2365 37.4762 11.8826 39.9033 13.0126C42.3324 14.1393 44.5114 15.7415 46.2917 17.6799C48.0721 19.6187 49.453 21.8927 50.3387 24.3254C51.2281 26.7574 51.6157 29.3442 51.5047 31.8862C51.3919 29.3434 50.7805 26.8465 49.7185 24.5826C48.6597 22.3171 47.157 20.2862 45.3422 18.6294C43.5267 16.9725 41.4009 15.6912 39.1318 14.8733C36.863 14.052 34.4551 13.699 32.0854 13.8097C29.7149 13.9229 27.3969 14.4995 25.2962 15.4935C23.1943 16.4845 21.3116 17.8876 19.7782 19.5789C18.2448 21.271 17.0631 23.2487 16.3129 25.3541C15.5597 27.4597 15.2414 29.6887 15.3518 31.8862C15.4262 33.3694 14.2842 34.6321 12.801 34.7066C11.3178 34.7811 10.055 33.639 9.98058 32.1558C9.97662 32.077 9.9761 31.9989 9.97888 31.9215L9.98041 31.8862Z"/>
<path fill="black" d="M93.0281 71.2268C92.916 74.114 92.2352 76.9688 91.0371 79.5591C89.8427 82.1518 88.1408 84.4789 86.079 86.3826C84.0167 88.2865 81.5945 89.767 78.9983 90.7205C76.403 91.6779 73.6373 92.1003 70.9231 91.9889C68.2081 91.8764 65.5323 91.2304 63.1052 90.1003C60.6761 88.9737 58.4971 87.3714 56.7168 85.4331C54.9364 83.4942 53.5555 81.2202 52.6698 78.7875C51.7805 76.3555 51.3928 73.7687 51.5038 71.2268C51.6167 73.7695 52.228 76.2665 53.29 78.5304C54.3488 80.7958 55.8515 82.8267 57.6663 84.4835C59.4818 86.1404 61.6077 87.4218 63.8767 88.2397C66.1456 89.0609 68.5534 89.4139 70.9231 89.3032C73.2936 89.19 75.6117 88.6134 77.7123 87.6194C79.8142 86.6284 81.6969 85.2253 83.2304 83.534C84.7637 81.8419 85.9455 79.8642 86.6956 77.7588C87.4488 75.6532 87.7671 73.4242 87.6568 71.2268C87.5823 69.7436 88.7243 68.4808 90.2075 68.4063C91.6908 68.3319 92.9535 69.4739 93.028 70.9571C93.0319 71.0359 93.0325 71.1141 93.0297 71.1914L93.0281 71.2268Z"/>
</svg>
